<svg width="23" height="33" viewBox="0 0 23 33" fill="none" xmlns="http://www.w3.org/2000/svg">
<g filter="url(#filter0_f_19_2174)">
<path d="M20.5122 16.8659C20.5122 22.8669 16.3681 27.7317 11.2561 27.7317C6.1441 27.7317 2 22.8669 2 16.8659C2 10.8648 6.1441 6 11.2561 6C16.3681 6 20.5122 10.8648 20.5122 16.8659Z" fill="#7BF7E8"/>
<path d="M20.0122 16.8659C20.0122 22.6689 16.0198 27.2317 11.2561 27.2317C6.49242 27.2317 2.5 22.6689 2.5 16.8659C2.5 11.0628 6.49242 6.5 11.2561 6.5C16.0198 6.5 20.0122 11.0628 20.0122 16.8659Z" stroke="#EA0000"/>
</g>
<path d="M10.32 21.11L9.14 18.59L5.18 19.28L4.14 21.11H3.99L6.72 13.21L8.3 12.97L11.5 20.98L10.32 21.11ZM7.51 15.11L5.96 17.88L9.02 18.35L7.51 15.11ZM14.7595 21L15.3295 18.8L13.5895 19.02L12.9795 21.13H12.8795L13.1695 19.08L11.7395 19.26V17.54L13.3695 17.71L13.6395 15.77L12.2295 15.58V15.38L13.7195 15.2L14.0095 13.2H15.2695L14.7195 15.08L16.3295 14.89L16.8195 13H16.9395L16.7295 14.84L18.1895 14.67V16.39L16.5795 16.17L16.3695 18L18.2995 18.19V18.41L16.2995 18.67L16.0395 21H14.7595ZM16.0195 16.1L14.4895 15.88L13.9495 17.76L15.5495 17.92L16.0195 16.1Z" fill="#3C0046"/>
<defs>
<filter id="filter0_f_19_2174" x="0" y="4" width="22.5122" height="25.7319" filterUnits="userSpaceOnUse" color-interpolation-filters="sRGB">
<feFlood flood-opacity="0" result="BackgroundImageFix"/>
<feBlend mode="normal" in="SourceGraphic" in2="BackgroundImageFix" result="shape"/>
<feGaussianBlur stdDeviation="1" result="effect1_foregroundBlur_19_2174"/>
</filter>
</defs>
</svg>
