<svg width="24" height="33" viewBox="0 0 24 33" fill="none" xmlns="http://www.w3.org/2000/svg">
<g filter="url(#filter0_f_19_2120)">
<path d="M20.5122 16.8659C20.5122 22.8669 16.3681 27.7317 11.2561 27.7317C6.1441 27.7317 2 22.8669 2 16.8659C2 10.8648 6.1441 6 11.2561 6C16.3681 6 20.5122 10.8648 20.5122 16.8659Z" fill="#7BF7E8"/>
<path d="M20.0122 16.8659C20.0122 22.6689 16.0198 27.2317 11.2561 27.2317C6.49242 27.2317 2.5 22.6689 2.5 16.8659C2.5 11.0628 6.49242 6.5 11.2561 6.5C16.0198 6.5 20.0122 11.0628 20.0122 16.8659Z" stroke="#EA0000"/>
</g>
<path d="M4.88 13.2H6.7L6.68 14.12C6.96667 13.82 7.28667 13.5933 7.64 13.44C7.99333 13.28 8.35667 13.2 8.73 13.2C9.13 13.2 9.49667 13.2933 9.83 13.48C10.17 13.66 10.4633 13.9133 10.71 14.24C10.9567 14.56 11.1467 14.93 11.28 15.35C11.4133 15.77 11.48 16.2167 11.48 16.69C11.48 17.1767 11.4067 17.6533 11.26 18.12C10.9533 19.1 10.31 19.8467 9.33 20.36C8.35 20.8733 6.99 21.13 5.25 21.13L4.88 13.2ZM6.54 20.57C7.51333 20.25 8.24667 19.8733 8.74 19.44C9.23333 19.0067 9.54 18.5867 9.66 18.18C9.76667 17.8133 9.82 17.4167 9.82 16.99C9.82 16.5433 9.76333 16.1167 9.65 15.71C9.53667 15.3033 9.37667 14.9667 9.17 14.7C8.97 14.4333 8.74 14.2833 8.48 14.25C8.34 14.23 8.20333 14.22 8.07 14.22C7.83667 14.22 7.60333 14.25 7.37 14.31C7.13667 14.3633 6.90333 14.4533 6.67 14.58L6.54 20.57ZM15.2869 21L15.8569 18.8L14.1169 19.02L13.5069 21.13H13.4069L13.6969 19.08L12.2669 19.26V17.54L13.8969 17.71L14.1669 15.77L12.7569 15.58V15.38L14.2469 15.2L14.5369 13.2H15.7969L15.2469 15.08L16.8569 14.89L17.3469 13H17.4669L17.2569 14.84L18.7169 14.67V16.39L17.1069 16.17L16.8969 18L18.8269 18.19V18.41L16.8269 18.67L16.5669 21H15.2869ZM16.5469 16.1L15.0169 15.88L14.4769 17.76L16.0769 17.92L16.5469 16.1Z" fill="#3C0046"/>
<defs>
<filter id="filter0_f_19_2120" x="0" y="4" width="22.5122" height="25.7319" filterUnits="userSpaceOnUse" color-interpolation-filters="sRGB">
<feFlood flood-opacity="0" result="BackgroundImageFix"/>
<feBlend mode="normal" in="SourceGraphic" in2="BackgroundImageFix" result="shape"/>
<feGaussianBlur stdDeviation="1" result="effect1_foregroundBlur_19_2120"/>
</filter>
</defs>
</svg>
