<svg width="23" height="26" viewBox="0 0 23 26" fill="none" xmlns="http://www.w3.org/2000/svg">
<g filter="url(#filter0_f_19_1111)">
<path d="M20.5122 12.8659C20.5122 18.8669 16.3681 23.7317 11.2561 23.7317C6.1441 23.7317 2 18.8669 2 12.8659C2 6.86481 6.1441 2 11.2561 2C16.3681 2 20.5122 6.86481 20.5122 12.8659Z" fill="#7BF7E8"/>
</g>
<g filter="url(#filter1_f_19_1111)">
<path fill-rule="evenodd" clip-rule="evenodd" d="M11.2561 22.7317C15.6715 22.7317 19.5122 18.471 19.5122 12.8659C19.5122 7.26072 15.6715 3 11.2561 3C6.84074 3 3 7.26072 3 12.8659C3 18.471 6.84074 22.7317 11.2561 22.7317ZM11.2561 23.7317C16.3681 23.7317 20.5122 18.8669 20.5122 12.8659C20.5122 6.86481 16.3681 2 11.2561 2C6.1441 2 2 6.86481 2 12.8659C2 18.8669 6.1441 23.7317 11.2561 23.7317Z" fill="#EA0000"/>
</g>
<path d="M11.4361 17.22C9.78608 17.22 8.45508 17.0696 7.44308 16.769C6.43108 16.461 5.69041 16.032 5.22108 15.482C4.75908 14.9246 4.52808 14.2793 4.52808 13.546C4.52808 12.666 4.64174 11.8923 4.86908 11.225C5.09641 10.5576 5.40074 10.0003 5.78208 9.55297C6.16341 9.0983 6.58874 8.7573 7.05808 8.52997C7.52741 8.30263 8.00408 8.18896 8.48808 8.18896C9.05274 8.18896 9.62108 8.24763 10.1931 8.36497C10.7651 8.4823 11.2857 8.66197 11.7551 8.90396L11.1391 10.697C10.6771 10.2276 10.1931 9.86096 9.68708 9.59696C9.18841 9.32563 8.67874 9.18997 8.15808 9.18997C7.90874 9.18997 7.67041 9.29996 7.44308 9.51997C7.21574 9.73263 7.01408 10.015 6.83808 10.367C6.66208 10.7116 6.52274 11.093 6.42008 11.511C6.32474 11.929 6.27708 12.336 6.27708 12.732C6.27708 13.2453 6.34308 13.711 6.47508 14.129C6.60708 14.5396 6.83074 14.91 7.14608 15.24C7.46874 15.5626 7.90508 15.845 8.45508 16.087C9.01241 16.3216 9.71274 16.5196 10.5561 16.681L10.3141 13.766L7.99308 13.216V13.084L12.0411 12.094L11.7661 17.22H11.4361Z" fill="#3C0046"/>
<path d="M13.4385 8.41997H15.3635L15.2315 11.775C15.4295 11.5916 15.6568 11.423 15.9135 11.269C16.1702 11.1076 16.4378 10.9793 16.7165 10.884C17.0025 10.7813 17.2812 10.73 17.5525 10.73C18.2492 10.73 18.7662 10.9463 19.1035 11.379C19.4482 11.8043 19.6205 12.4093 19.6205 13.194C19.6205 14.0813 19.3785 14.8183 18.8945 15.405C18.4105 15.9916 17.7322 16.428 16.8595 16.714C15.9942 17 14.9785 17.143 13.8125 17.143L13.4385 8.41997ZM15.0335 16.626C15.7888 16.3766 16.3792 16.0796 16.8045 15.735C17.2298 15.3903 17.5305 15.009 17.7065 14.591C17.8825 14.173 17.9705 13.7366 17.9705 13.282C17.9705 12.7833 17.8862 12.424 17.7175 12.204C17.5488 11.984 17.3032 11.874 16.9805 11.874C16.6725 11.874 16.3792 11.8996 16.1005 11.951C15.8292 12.0023 15.5322 12.094 15.2095 12.226L15.0335 16.626Z" fill="#3C0046"/>
<defs>
<filter id="filter0_f_19_1111" x="0" y="0" width="22.5122" height="25.7319" filterUnits="userSpaceOnUse" color-interpolation-filters="sRGB">
<feFlood flood-opacity="0" result="BackgroundImageFix"/>
<feBlend mode="normal" in="SourceGraphic" in2="BackgroundImageFix" result="shape"/>
<feGaussianBlur stdDeviation="1" result="effect1_foregroundBlur_19_1111"/>
</filter>
<filter id="filter1_f_19_1111" x="0" y="0" width="22.5122" height="25.7319" filterUnits="userSpaceOnUse" color-interpolation-filters="sRGB">
<feFlood flood-opacity="0" result="BackgroundImageFix"/>
<feBlend mode="normal" in="SourceGraphic" in2="BackgroundImageFix" result="shape"/>
<feGaussianBlur stdDeviation="1" result="effect1_foregroundBlur_19_1111"/>
</filter>
</defs>
</svg>
