<svg width="58" height="46" viewBox="0 0 58 46" fill="none" xmlns="http://www.w3.org/2000/svg">
<g filter="url(#filter0_f_105_108)">
<path d="M20.1874 22.8659C20.1874 28.8669 16.116 33.7317 11.0937 33.7317C6.07139 33.7317 2 28.8669 2 22.8659C2 16.8648 6.07139 12 11.0937 12C16.116 12 20.1874 16.8648 20.1874 22.8659Z" fill="#7BF7E8"/>
<path d="M19.6874 22.8659C19.6874 28.6778 15.7602 33.2317 11.0937 33.2317C6.42722 33.2317 2.5 28.6778 2.5 22.8659C2.5 17.0539 6.42722 12.5 11.0937 12.5C15.7602 12.5 19.6874 17.0539 19.6874 22.8659Z" stroke="#EA0000"/>
</g>
<path d="M8.76 27.2C7.26 27.2 6.05 27.0633 5.13 26.79C4.21 26.51 3.53667 26.12 3.11 25.62C2.69 25.1133 2.48 24.5267 2.48 23.86C2.48 23.06 2.58333 22.3567 2.79 21.75C2.99667 21.1433 3.27333 20.6367 3.62 20.23C3.96667 19.8167 4.35333 19.5067 4.78 19.3C5.20667 19.0933 5.64 18.99 6.08 18.99C6.59333 18.99 7.11 19.0433 7.63 19.15C8.15 19.2567 8.62333 19.42 9.05 19.64L8.49 21.27C8.07 20.8433 7.63 20.51 7.17 20.27C6.71667 20.0233 6.25333 19.9 5.78 19.9C5.55333 19.9 5.33667 20 5.13 20.2C4.92333 20.3933 4.74 20.65 4.58 20.97C4.42 21.2833 4.29333 21.63 4.2 22.01C4.11333 22.39 4.07 22.76 4.07 23.12C4.07 23.5867 4.13 24.01 4.25 24.39C4.37 24.7633 4.57333 25.1 4.86 25.4C5.15333 25.6933 5.55 25.95 6.05 26.17C6.55667 26.3833 7.19333 26.5633 7.96 26.71L7.74 24.06L5.63 23.56V23.44L9.31 22.54L9.06 27.2H8.76ZM13.1404 27L13.7104 24.8L11.9704 25.02L11.3604 27.13H11.2604L11.5504 25.08L10.1204 25.26V23.54L11.7504 23.71L12.0204 21.77L10.6104 21.58V21.38L12.1004 21.2L12.3904 19.2H13.6504L13.1004 21.08L14.7104 20.89L15.2004 19H15.3204L15.1104 20.84L16.5704 20.67V22.39L14.9604 22.17L14.7504 24L16.6804 24.19V24.41L14.6804 24.67L14.4204 27H13.1404ZM14.4004 22.1L12.8704 21.88L12.3304 23.76L13.9304 23.92L14.4004 22.1ZM20.0447 27L20.6147 24.8L18.8747 25.02L18.2647 27.13H18.1647L18.4547 25.08L17.0247 25.26V23.54L18.6547 23.71L18.9247 21.77L17.5147 21.58V21.38L19.0047 21.2L19.2947 19.2H20.5547L20.0047 21.08L21.6147 20.89L22.1047 19H22.2247L22.0147 20.84L23.4747 20.67V22.39L21.8647 22.17L21.6547 24L23.5847 24.19V24.41L21.5847 24.67L21.3247 27H20.0447ZM21.3047 22.1L19.7747 21.88L19.2347 23.76L20.8347 23.92L21.3047 22.1Z" fill="#3C0046"/>
<defs>
<filter id="filter0_f_105_108" x="0" y="10" width="22.1875" height="25.7319" filterUnits="userSpaceOnUse" color-interpolation-filters="sRGB">
<feFlood flood-opacity="0" result="BackgroundImageFix"/>
<feBlend mode="normal" in="SourceGraphic" in2="BackgroundImageFix" result="shape"/>
<feGaussianBlur stdDeviation="1" result="effect1_foregroundBlur_105_108"/>
</filter>
</defs>
</svg>
