<svg width="23" height="26" viewBox="0 0 23 26" fill="none" xmlns="http://www.w3.org/2000/svg">
<g filter="url(#filter0_f_19_1123)">
<path d="M20.5122 12.8659C20.5122 18.8669 16.3681 23.7317 11.2561 23.7317C6.1441 23.7317 2 18.8669 2 12.8659C2 6.86481 6.1441 2 11.2561 2C16.3681 2 20.5122 6.86481 20.5122 12.8659Z" fill="#7BF7E8"/>
</g>
<g filter="url(#filter1_f_19_1123)">
<path fill-rule="evenodd" clip-rule="evenodd" d="M11.2561 22.7317C15.6715 22.7317 19.5122 18.471 19.5122 12.8659C19.5122 7.26072 15.6715 3 11.2561 3C6.84074 3 3 7.26072 3 12.8659C3 18.471 6.84074 22.7317 11.2561 22.7317ZM11.2561 23.7317C16.3681 23.7317 20.5122 18.8669 20.5122 12.8659C20.5122 6.86481 16.3681 2 11.2561 2C6.1441 2 2 6.86481 2 12.8659C2 18.8669 6.1441 23.7317 11.2561 23.7317Z" fill="#EA0000"/>
</g>
<path d="M10.952 17.121L9.65401 14.349L5.29801 15.108L4.15401 17.121H3.98901L6.99201 8.43099L8.73001 8.16699L12.25 16.978L10.952 17.121ZM7.86101 10.521L6.15601 13.568L9.52201 14.085L7.86101 10.521Z" fill="#3C0046"/>
<path d="M13.0195 8.41999H14.9445L14.8125 11.775C15.0105 11.5917 15.2378 11.423 15.4945 11.269C15.7512 11.1077 16.0188 10.9793 16.2975 10.884C16.5835 10.7813 16.8622 10.73 17.1335 10.73C17.8302 10.73 18.3472 10.9463 18.6845 11.379C19.0292 11.8043 19.2015 12.4093 19.2015 13.194C19.2015 14.0813 18.9595 14.8183 18.4755 15.405C17.9915 15.9917 17.3132 16.428 16.4405 16.714C15.5752 17 14.5595 17.143 13.3935 17.143L13.0195 8.41999ZM14.6145 16.626C15.3698 16.3767 15.9602 16.0797 16.3855 15.735C16.8108 15.3903 17.1115 15.009 17.2875 14.591C17.4635 14.173 17.5515 13.7367 17.5515 13.282C17.5515 12.7833 17.4672 12.424 17.2985 12.204C17.1298 11.984 16.8842 11.874 16.5615 11.874C16.2535 11.874 15.9602 11.8997 15.6815 11.951C15.4102 12.0023 15.1132 12.094 14.7905 12.226L14.6145 16.626Z" fill="#3C0046"/>
<defs>
<filter id="filter0_f_19_1123" x="0" y="0" width="22.5122" height="25.7319" filterUnits="userSpaceOnUse" color-interpolation-filters="sRGB">
<feFlood flood-opacity="0" result="BackgroundImageFix"/>
<feBlend mode="normal" in="SourceGraphic" in2="BackgroundImageFix" result="shape"/>
<feGaussianBlur stdDeviation="1" result="effect1_foregroundBlur_19_1123"/>
</filter>
<filter id="filter1_f_19_1123" x="0" y="0" width="22.5122" height="25.7319" filterUnits="userSpaceOnUse" color-interpolation-filters="sRGB">
<feFlood flood-opacity="0" result="BackgroundImageFix"/>
<feBlend mode="normal" in="SourceGraphic" in2="BackgroundImageFix" result="shape"/>
<feGaussianBlur stdDeviation="1" result="effect1_foregroundBlur_19_1123"/>
</filter>
</defs>
</svg>
