<svg width="23" height="26" viewBox="0 0 23 26" fill="none" xmlns="http://www.w3.org/2000/svg">
<g filter="url(#filter0_f_19_1462)">
<path d="M20.5122 12.8659C20.5122 18.8669 16.3681 23.7317 11.2561 23.7317C6.1441 23.7317 2 18.8669 2 12.8659C2 6.86481 6.1441 2 11.2561 2C16.3681 2 20.5122 6.86481 20.5122 12.8659Z" fill="#7BF7E8"/>
</g>
<g filter="url(#filter1_f_19_1462)">
<path fill-rule="evenodd" clip-rule="evenodd" d="M11.2561 22.7317C15.6715 22.7317 19.5122 18.471 19.5122 12.8659C19.5122 7.26072 15.6715 3 11.2561 3C6.84074 3 3 7.26072 3 12.8659C3 18.471 6.84074 22.7317 11.2561 22.7317ZM11.2561 23.7317C16.3681 23.7317 20.5122 18.8669 20.5122 12.8659C20.5122 6.86481 16.3681 2 11.2561 2C6.1441 2 2 6.86481 2 12.8659C2 18.8669 6.1441 23.7317 11.2561 23.7317Z" fill="#EA0000"/>
</g>
<path d="M4.96802 8.41992H6.97002L6.95902 9.00292C7.27435 8.81225 7.59702 8.66925 7.92702 8.57392C8.25702 8.47125 8.58335 8.41992 8.90602 8.41992C9.73468 8.41992 10.3397 8.58125 10.721 8.90392C11.1097 9.21925 11.304 9.61526 11.304 10.0919C11.304 10.1359 11.3004 10.1799 11.293 10.2239C11.293 10.2679 11.2894 10.3119 11.282 10.3559C11.238 10.7079 11.051 11.0599 10.721 11.4119C10.391 11.7639 9.87035 12.0903 9.15902 12.3909C9.71635 12.4203 10.1857 12.5339 10.567 12.7319C10.9484 12.9299 11.238 13.1609 11.436 13.4249C11.634 13.6889 11.733 13.9419 11.733 14.1839C11.733 14.7926 11.48 15.3206 10.974 15.7679C10.4754 16.2079 9.75302 16.5489 8.80702 16.7909C7.86102 17.0256 6.71702 17.1429 5.37502 17.1429L4.96802 8.41992ZM6.88202 12.7759C7.52002 12.4753 8.02968 12.1709 8.41102 11.8629C8.79968 11.5549 9.08202 11.2726 9.25802 11.0159C9.44135 10.7519 9.54402 10.5503 9.56602 10.4109C9.57335 10.3816 9.57702 10.3559 9.57702 10.3339C9.57702 10.3046 9.57702 10.2753 9.57702 10.2459C9.57702 9.99659 9.49635 9.76925 9.33502 9.56392C9.17368 9.35125 8.95368 9.24492 8.67502 9.24492C8.35968 9.24492 8.06635 9.26325 7.79502 9.29992C7.52368 9.32925 7.24135 9.38792 6.94802 9.47592L6.88202 12.7759ZM6.79402 16.6259C7.41002 16.4866 7.91235 16.3253 8.30102 16.1419C8.69702 15.9513 9.00135 15.7496 9.21402 15.5369C9.43402 15.3243 9.58802 15.1079 9.67602 14.8879C9.76402 14.6606 9.80802 14.4369 9.80802 14.2169C9.80802 14.0923 9.76768 13.9713 9.68702 13.8539C9.60635 13.7293 9.45968 13.6156 9.24702 13.5129C9.03435 13.4029 8.73368 13.3149 8.34502 13.2489C7.96368 13.1756 7.47235 13.1353 6.87102 13.1279L6.79402 16.6259Z" fill="#3C0046"/>
<path d="M12.8476 8.41992H14.7726L14.6406 11.7749C14.8386 11.5916 15.066 11.4229 15.3226 11.2689C15.5793 11.1076 15.847 10.9793 16.1256 10.8839C16.4116 10.7813 16.6903 10.7299 16.9616 10.7299C17.6583 10.7299 18.1753 10.9463 18.5126 11.3789C18.8573 11.8043 19.0296 12.4093 19.0296 13.1939C19.0296 14.0813 18.7876 14.8183 18.3036 15.4049C17.8196 15.9916 17.1413 16.4279 16.2686 16.7139C15.4033 16.9999 14.3876 17.1429 13.2216 17.1429L12.8476 8.41992ZM14.4426 16.6259C15.198 16.3766 15.7883 16.0796 16.2136 15.7349C16.639 15.3903 16.9396 15.0089 17.1156 14.5909C17.2916 14.1729 17.3796 13.7366 17.3796 13.2819C17.3796 12.7833 17.2953 12.4239 17.1266 12.2039C16.958 11.9839 16.7123 11.8739 16.3896 11.8739C16.0816 11.8739 15.7883 11.8996 15.5096 11.9509C15.2383 12.0023 14.9413 12.0939 14.6186 12.2259L14.4426 16.6259Z" fill="#3C0046"/>
<defs>
<filter id="filter0_f_19_1462" x="0" y="0" width="22.5122" height="25.7319" filterUnits="userSpaceOnUse" color-interpolation-filters="sRGB">
<feFlood flood-opacity="0" result="BackgroundImageFix"/>
<feBlend mode="normal" in="SourceGraphic" in2="BackgroundImageFix" result="shape"/>
<feGaussianBlur stdDeviation="1" result="effect1_foregroundBlur_19_1462"/>
</filter>
<filter id="filter1_f_19_1462" x="0" y="0" width="22.5122" height="25.7319" filterUnits="userSpaceOnUse" color-interpolation-filters="sRGB">
<feFlood flood-opacity="0" result="BackgroundImageFix"/>
<feBlend mode="normal" in="SourceGraphic" in2="BackgroundImageFix" result="shape"/>
<feGaussianBlur stdDeviation="1" result="effect1_foregroundBlur_19_1462"/>
</filter>
</defs>
</svg>
