<svg width="23" height="36" viewBox="0 0 23 36" fill="none" xmlns="http://www.w3.org/2000/svg">
<g filter="url(#filter0_f_19_2198)">
<path d="M20.5122 18.8659C20.5122 24.8669 16.3681 29.7317 11.2561 29.7317C6.1441 29.7317 2 24.8669 2 18.8659C2 12.8648 6.1441 8 11.2561 8C16.3681 8 20.5122 12.8648 20.5122 18.8659Z" fill="#7BF7E8"/>
<path d="M20.0122 18.8659C20.0122 24.6689 16.0198 29.2317 11.2561 29.2317C6.49242 29.2317 2.5 24.6689 2.5 18.8659C2.5 13.0628 6.49242 8.5 11.2561 8.5C16.0198 8.5 20.0122 13.0628 20.0122 18.8659Z" stroke="#EA0000"/>
</g>
<path d="M10.76 22.2C9.62 22.2 8.65 22.12 7.85 21.96C7.05 21.8 6.40333 21.5733 5.91 21.28C5.41667 20.9867 5.05333 20.6367 4.82 20.23C4.59333 19.8167 4.48 19.36 4.48 18.86C4.48 18.06 4.58333 17.3567 4.79 16.75C4.99667 16.1433 5.27333 15.6367 5.62 15.23C5.96667 14.8167 6.35333 14.5067 6.78 14.3C7.20667 14.0933 7.64 13.99 8.08 13.99C8.59333 13.99 9.11 14.0433 9.63 14.15C10.15 14.2567 10.6233 14.42 11.05 14.64L10.49 16.27C9.64333 15.41 8.74 14.98 7.78 14.98C7.55333 14.98 7.34 15.0733 7.14 15.26C6.94 15.4467 6.76667 15.6967 6.62 16.01C6.47333 16.3167 6.35667 16.6567 6.27 17.03C6.19 17.3967 6.15 17.76 6.15 18.12C6.15 18.62 6.22 19.0767 6.36 19.49C6.50667 19.8967 6.75333 20.2633 7.1 20.59C7.44667 20.91 7.92 21.1933 8.52 21.44C9.12 21.68 9.87333 21.89 10.78 22.07L10.76 22.2ZM14.613 22L15.183 19.8L13.443 20.02L12.833 22.13H12.733L13.023 20.08L11.593 20.26V18.54L13.223 18.71L13.493 16.77L12.083 16.58V16.38L13.573 16.2L13.863 14.2H15.123L14.573 16.08L16.183 15.89L16.673 14H16.793L16.583 15.84L18.043 15.67V17.39L16.433 17.17L16.223 19L18.153 19.19V19.41L16.153 19.67L15.893 22H14.613ZM15.873 17.1L14.343 16.88L13.803 18.76L15.403 18.92L15.873 17.1Z" fill="#3C0046"/>
<defs>
<filter id="filter0_f_19_2198" x="0" y="6" width="22.5122" height="25.7319" filterUnits="userSpaceOnUse" color-interpolation-filters="sRGB">
<feFlood flood-opacity="0" result="BackgroundImageFix"/>
<feBlend mode="normal" in="SourceGraphic" in2="BackgroundImageFix" result="shape"/>
<feGaussianBlur stdDeviation="1" result="effect1_foregroundBlur_19_2198"/>
</filter>
</defs>
</svg>
