<svg width="23" height="33" viewBox="0 0 23 33" fill="none" xmlns="http://www.w3.org/2000/svg">
<g filter="url(#filter0_f_19_2159)">
<path d="M20.5122 16.8659C20.5122 22.8669 16.3681 27.7317 11.2561 27.7317C6.1441 27.7317 2 22.8669 2 16.8659C2 10.8648 6.1441 6 11.2561 6C16.3681 6 20.5122 10.8648 20.5122 16.8659Z" fill="#7BF7E8"/>
<path d="M20.0122 16.8659C20.0122 22.6689 16.0198 27.2317 11.2561 27.2317C6.49242 27.2317 2.5 22.6689 2.5 16.8659C2.5 11.0628 6.49242 6.5 11.2561 6.5C16.0198 6.5 20.0122 11.0628 20.0122 16.8659Z" stroke="#EA0000"/>
</g>
<path d="M10.76 21.2C9.26 21.2 8.05 21.0633 7.13 20.79C6.21 20.51 5.53667 20.12 5.11 19.62C4.69 19.1133 4.48 18.5267 4.48 17.86C4.48 17.06 4.58333 16.3567 4.79 15.75C4.99667 15.1433 5.27333 14.6367 5.62 14.23C5.96667 13.8167 6.35333 13.5067 6.78 13.3C7.20667 13.0933 7.64 12.99 8.08 12.99C8.59333 12.99 9.11 13.0433 9.63 13.15C10.15 13.2567 10.6233 13.42 11.05 13.64L10.49 15.27C10.07 14.8433 9.63 14.51 9.17 14.27C8.71667 14.0233 8.25333 13.9 7.78 13.9C7.55333 13.9 7.33667 14 7.13 14.2C6.92333 14.3933 6.74 14.65 6.58 14.97C6.42 15.2833 6.29333 15.63 6.2 16.01C6.11333 16.39 6.07 16.76 6.07 17.12C6.07 17.5867 6.13 18.01 6.25 18.39C6.37 18.7633 6.57333 19.1 6.86 19.4C7.15333 19.6933 7.55 19.95 8.05 20.17C8.55667 20.3833 9.19333 20.5633 9.96 20.71L9.74 18.06L7.63 17.56V17.44L11.31 16.54L11.06 21.2H10.76ZM15.1404 21L15.7104 18.8L13.9704 19.02L13.3604 21.13H13.2604L13.5504 19.08L12.1204 19.26V17.54L13.7504 17.71L14.0204 15.77L12.6104 15.58V15.38L14.1004 15.2L14.3904 13.2H15.6504L15.1004 15.08L16.7104 14.89L17.2004 13H17.3204L17.1104 14.84L18.5704 14.67V16.39L16.9604 16.17L16.7504 18L18.6804 18.19V18.41L16.6804 18.67L16.4204 21H15.1404ZM16.4004 16.1L14.8704 15.88L14.3304 17.76L15.9304 17.92L16.4004 16.1Z" fill="#3C0046"/>
<defs>
<filter id="filter0_f_19_2159" x="0" y="4" width="22.5122" height="25.7319" filterUnits="userSpaceOnUse" color-interpolation-filters="sRGB">
<feFlood flood-opacity="0" result="BackgroundImageFix"/>
<feBlend mode="normal" in="SourceGraphic" in2="BackgroundImageFix" result="shape"/>
<feGaussianBlur stdDeviation="1" result="effect1_foregroundBlur_19_2159"/>
</filter>
</defs>
</svg>
