<svg width="29" height="42" viewBox="0 0 29 42" fill="none" xmlns="http://www.w3.org/2000/svg">
<g filter="url(#filter0_f_101_43)">
<path d="M20.5122 21.4153C20.5122 28.2273 16.3681 33.7495 11.2561 33.7495C6.1441 33.7495 2 28.2273 2 21.4153C2 14.6033 6.1441 9.08105 11.2561 9.08105C16.3681 9.08105 20.5122 14.6033 20.5122 21.4153Z" fill="#7BF7E8"/>
<path d="M20.0122 21.4153C20.0122 24.7235 19.0053 27.6993 17.4012 29.8368C15.7973 31.9741 13.6196 33.2495 11.2561 33.2495C8.89263 33.2495 6.7149 31.9741 5.11096 29.8368C3.5069 27.6993 2.5 24.7235 2.5 21.4153C2.5 18.1071 3.5069 15.1313 5.11096 12.9938C6.7149 10.8564 8.89263 9.58105 11.2561 9.58105C13.6196 9.58105 15.7973 10.8564 17.4012 12.9938C19.0053 15.1313 20.0122 18.1071 20.0122 21.4153Z" stroke="#EA0000"/>
</g>
<path d="M2.88 17.2H4.7L4.68 18.12C4.96667 17.82 5.28667 17.5933 5.64 17.44C5.99333 17.28 6.35667 17.2 6.73 17.2C7.13 17.2 7.49667 17.2933 7.83 17.48C8.17 17.66 8.46333 17.9133 8.71 18.24C8.95667 18.56 9.14667 18.93 9.28 19.35C9.41333 19.77 9.48 20.2167 9.48 20.69C9.48 21.1767 9.40667 21.6533 9.26 22.12C8.95333 23.1 8.31 23.8467 7.33 24.36C6.35 24.8733 4.99 25.13 3.25 25.13L2.88 17.2ZM4.54 24.57C5.51333 24.25 6.24667 23.8733 6.74 23.44C7.23333 23.0067 7.54 22.5867 7.66 22.18C7.76667 21.8133 7.82 21.4167 7.82 20.99C7.82 20.5433 7.76333 20.1167 7.65 19.71C7.53667 19.3033 7.37667 18.9667 7.17 18.7C6.97 18.4333 6.74 18.2833 6.48 18.25C6.34 18.23 6.20333 18.22 6.07 18.22C5.83667 18.22 5.60333 18.25 5.37 18.31C5.13667 18.3633 4.90333 18.4533 4.67 18.58L4.54 24.57ZM10.7269 17.2H12.4769L12.3569 20.25C12.5369 20.0833 12.7435 19.93 12.9769 19.79C13.2102 19.6433 13.4535 19.5267 13.7069 19.44C13.9669 19.3467 14.2202 19.3 14.4669 19.3C15.1002 19.3 15.5702 19.4967 15.8769 19.89C16.1902 20.2767 16.3469 20.8267 16.3469 21.54C16.3469 22.3467 16.1269 23.0167 15.6869 23.55C15.2469 24.0833 14.6302 24.48 13.8369 24.74C13.0502 25 12.1269 25.13 11.0669 25.13L10.7269 17.2ZM12.1769 24.66C12.8635 24.4333 13.4002 24.1633 13.7869 23.85C14.1735 23.5367 14.4469 23.19 14.6069 22.81C14.7669 22.43 14.8469 22.0333 14.8469 21.62C14.8469 21.1667 14.7702 20.84 14.6169 20.64C14.4635 20.44 14.2402 20.34 13.9469 20.34C13.6669 20.34 13.4002 20.3633 13.1469 20.41C12.9002 20.4567 12.6302 20.54 12.3369 20.66L12.1769 24.66ZM17.4163 17.2H19.1663L19.0463 20.25C19.2263 20.0833 19.433 19.93 19.6663 19.79C19.8997 19.6433 20.143 19.5267 20.3963 19.44C20.6563 19.3467 20.9097 19.3 21.1563 19.3C21.7897 19.3 22.2597 19.4967 22.5663 19.89C22.8797 20.2767 23.0363 20.8267 23.0363 21.54C23.0363 22.3467 22.8163 23.0167 22.3763 23.55C21.9363 24.0833 21.3197 24.48 20.5263 24.74C19.7397 25 18.8163 25.13 17.7563 25.13L17.4163 17.2ZM18.8663 24.66C19.553 24.4333 20.0897 24.1633 20.4763 23.85C20.863 23.5367 21.1363 23.19 21.2963 22.81C21.4563 22.43 21.5363 22.0333 21.5363 21.62C21.5363 21.1667 21.4597 20.84 21.3063 20.64C21.153 20.44 20.9297 20.34 20.6363 20.34C20.3563 20.34 20.0897 20.3633 19.8363 20.41C19.5897 20.4567 19.3197 20.54 19.0263 20.66L18.8663 24.66Z" fill="#3C0046"/>
<defs>
<filter id="filter0_f_101_43" x="0" y="7.08105" width="22.5122" height="28.6685" filterUnits="userSpaceOnUse" color-interpolation-filters="sRGB">
<feFlood flood-opacity="0" result="BackgroundImageFix"/>
<feBlend mode="normal" in="SourceGraphic" in2="BackgroundImageFix" result="shape"/>
<feGaussianBlur stdDeviation="1" result="effect1_foregroundBlur_101_43"/>
</filter>
</defs>
</svg>
