<svg width="23" height="26" viewBox="0 0 23 26" fill="none" xmlns="http://www.w3.org/2000/svg">
<g filter="url(#filter0_f_19_1192)">
<path d="M20.5122 12.8659C20.5122 18.8669 16.3681 23.7317 11.2561 23.7317C6.1441 23.7317 2 18.8669 2 12.8659C2 6.86481 6.1441 2 11.2561 2C16.3681 2 20.5122 6.86481 20.5122 12.8659Z" fill="#7BF7E8"/>
</g>
<g filter="url(#filter1_f_19_1192)">
<path fill-rule="evenodd" clip-rule="evenodd" d="M11.2561 22.7317C15.6715 22.7317 19.5122 18.471 19.5122 12.8659C19.5122 7.26072 15.6715 3 11.2561 3C6.84074 3 3 7.26072 3 12.8659C3 18.471 6.84074 22.7317 11.2561 22.7317ZM11.2561 23.7317C16.3681 23.7317 20.5122 18.8669 20.5122 12.8659C20.5122 6.86481 16.3681 2 11.2561 2C6.1441 2 2 6.86481 2 12.8659C2 18.8669 6.1441 23.7317 11.2561 23.7317Z" fill="#EA0000"/>
</g>
<path d="M5.76001 5.3999H9.40001L9.38001 6.4599C9.95334 6.11324 10.54 5.85324 11.14 5.6799C11.74 5.49324 12.3333 5.3999 12.92 5.3999C14.4267 5.3999 15.5267 5.69324 16.22 6.2799C16.9267 6.85324 17.28 7.57324 17.28 8.4399C17.28 8.5199 17.2733 8.5999 17.26 8.6799C17.26 8.7599 17.2533 8.8399 17.24 8.9199C17.16 9.5599 16.82 10.1999 16.22 10.8399C15.62 11.4799 14.6733 12.0732 13.38 12.6199C14.3933 12.6732 15.2467 12.8799 15.94 13.2399C16.6333 13.5999 17.16 14.0199 17.52 14.4999C17.88 14.9799 18.06 15.4399 18.06 15.8799C18.06 16.9866 17.6 17.9466 16.68 18.7599C15.7733 19.5599 14.46 20.1799 12.74 20.6199C11.02 21.0466 8.94001 21.2599 6.50001 21.2599L5.76001 5.3999ZM9.24001 13.3199C10.4 12.7732 11.3267 12.2199 12.02 11.6599C12.7267 11.0999 13.24 10.5866 13.56 10.1199C13.8933 9.6399 14.08 9.27324 14.12 9.0199C14.1333 8.96657 14.14 8.9199 14.14 8.8799C14.14 8.82657 14.14 8.77324 14.14 8.7199C14.14 8.26657 13.9933 7.85324 13.7 7.4799C13.4067 7.09323 13.0067 6.8999 12.5 6.8999C11.9267 6.8999 11.3933 6.93324 10.9 6.9999C10.4067 7.05324 9.89334 7.1599 9.36001 7.3199L9.24001 13.3199ZM9.08001 20.3199C10.2 20.0666 11.1133 19.7732 11.82 19.4399C12.54 19.0932 13.0933 18.7266 13.48 18.3399C13.88 17.9532 14.16 17.5599 14.32 17.1599C14.48 16.7466 14.56 16.3399 14.56 15.9399C14.56 15.7132 14.4867 15.4932 14.34 15.2799C14.1933 15.0532 13.9267 14.8466 13.54 14.6599C13.1533 14.4599 12.6067 14.2999 11.9 14.1799C11.2067 14.0466 10.3133 13.9732 9.22001 13.9599L9.08001 20.3199Z" fill="#3C0046"/>
<defs>
<filter id="filter0_f_19_1192" x="0" y="0" width="22.5122" height="25.7319" filterUnits="userSpaceOnUse" color-interpolation-filters="sRGB">
<feFlood flood-opacity="0" result="BackgroundImageFix"/>
<feBlend mode="normal" in="SourceGraphic" in2="BackgroundImageFix" result="shape"/>
<feGaussianBlur stdDeviation="1" result="effect1_foregroundBlur_19_1192"/>
</filter>
<filter id="filter1_f_19_1192" x="0" y="0" width="22.5122" height="25.7319" filterUnits="userSpaceOnUse" color-interpolation-filters="sRGB">
<feFlood flood-opacity="0" result="BackgroundImageFix"/>
<feBlend mode="normal" in="SourceGraphic" in2="BackgroundImageFix" result="shape"/>
<feGaussianBlur stdDeviation="1" result="effect1_foregroundBlur_19_1192"/>
</filter>
</defs>
</svg>
