<svg width="23" height="26" viewBox="0 0 23 26" fill="none" xmlns="http://www.w3.org/2000/svg">
<g filter="url(#filter0_f_86_10)">
<path d="M20.5122 12.8659C20.5122 18.8669 16.3681 23.7317 11.2561 23.7317C6.1441 23.7317 2 18.8669 2 12.8659C2 6.86481 6.1441 2 11.2561 2C16.3681 2 20.5122 6.86481 20.5122 12.8659Z" fill="#7BF7E8"/>
</g>
<g filter="url(#filter1_f_86_10)">
<path fill-rule="evenodd" clip-rule="evenodd" d="M11.2561 22.7317C15.6715 22.7317 19.5122 18.471 19.5122 12.8659C19.5122 7.26072 15.6715 3 11.2561 3C6.84074 3 3 7.26072 3 12.8659C3 18.471 6.84074 22.7317 11.2561 22.7317ZM11.2561 23.7317C16.3681 23.7317 20.5122 18.8669 20.5122 12.8659C20.5122 6.86481 16.3681 2 11.2561 2C6.1441 2 2 6.86481 2 12.8659C2 18.8669 6.1441 23.7317 11.2561 23.7317Z" fill="#EA0000"/>
</g>
<path d="M5.25 17.1L4.88 9.2H6.7L6.68 9.96L10.28 9.1V10.72L6.67 10.37L6.61 12.9L9.77 12.16V13.75L6.6 13.3L6.54 15.71L10.48 16.13V16.23L5.25 17.1ZM14.1345 17L14.7045 14.8L12.9645 15.02L12.3545 17.13H12.2545L12.5445 15.08L11.1145 15.26V13.54L12.7445 13.71L13.0145 11.77L11.6045 11.58V11.38L13.0945 11.2L13.3845 9.2H14.6445L14.0945 11.08L15.7045 10.89L16.1945 9H16.3145L16.1045 10.84L17.5645 10.67V12.39L15.9545 12.17L15.7445 14L17.6745 14.19V14.41L15.6745 14.67L15.4145 17H14.1345ZM15.3945 12.1L13.8645 11.88L13.3245 13.76L14.9245 13.92L15.3945 12.1Z" fill="#3C0046"/>
<defs>
<filter id="filter0_f_86_10" x="0" y="0" width="22.5122" height="25.7319" filterUnits="userSpaceOnUse" color-interpolation-filters="sRGB">
<feFlood flood-opacity="0" result="BackgroundImageFix"/>
<feBlend mode="normal" in="SourceGraphic" in2="BackgroundImageFix" result="shape"/>
<feGaussianBlur stdDeviation="1" result="effect1_foregroundBlur_86_10"/>
</filter>
<filter id="filter1_f_86_10" x="0" y="0" width="22.5122" height="25.7319" filterUnits="userSpaceOnUse" color-interpolation-filters="sRGB">
<feFlood flood-opacity="0" result="BackgroundImageFix"/>
<feBlend mode="normal" in="SourceGraphic" in2="BackgroundImageFix" result="shape"/>
<feGaussianBlur stdDeviation="1" result="effect1_foregroundBlur_86_10"/>
</filter>
</defs>
</svg>
