<svg width="28" height="42" viewBox="0 0 28 42" fill="none" xmlns="http://www.w3.org/2000/svg">
<g filter="url(#filter0_f_105_64)">
<path d="M20.5122 21.4153C20.5122 28.2273 16.3681 33.7495 11.2561 33.7495C6.1441 33.7495 2 28.2273 2 21.4153C2 14.6033 6.1441 9.08105 11.2561 9.08105C16.3681 9.08105 20.5122 14.6033 20.5122 21.4153Z" fill="#7BF7E8"/>
<path d="M20.0122 21.4153C20.0122 24.7235 19.0053 27.6993 17.4012 29.8368C15.7973 31.9741 13.6196 33.2495 11.2561 33.2495C8.89263 33.2495 6.7149 31.9741 5.11096 29.8368C3.5069 27.6993 2.5 24.7235 2.5 21.4153C2.5 18.1071 3.5069 15.1313 5.11096 12.9938C6.7149 10.8564 8.89263 9.58105 11.2561 9.58105C13.6196 9.58105 15.7973 10.8564 17.4012 12.9938C19.0053 15.1313 20.0122 18.1071 20.0122 21.4153Z" stroke="#EA0000"/>
</g>
<path d="M2.25 25.1L1.88 17.2H3.7L3.68 17.96L7.28 17.1V18.72L3.67 18.37L3.61 20.9L6.77 20.16V21.75L3.6 21.3L3.54 23.71L7.48 24.13V24.23L2.25 25.1ZM8.57453 17.2H10.3245L10.2045 20.25C10.3845 20.0833 10.5912 19.93 10.8245 19.79C11.0579 19.6433 11.3012 19.5267 11.5545 19.44C11.8145 19.3467 12.0679 19.3 12.3145 19.3C12.9479 19.3 13.4179 19.4967 13.7245 19.89C14.0379 20.2767 14.1945 20.8267 14.1945 21.54C14.1945 22.3467 13.9745 23.0167 13.5345 23.55C13.0945 24.0833 12.4779 24.48 11.6845 24.74C10.8979 25 9.97453 25.13 8.91453 25.13L8.57453 17.2ZM10.0245 24.66C10.7112 24.4333 11.2479 24.1633 11.6345 23.85C12.0212 23.5367 12.2945 23.19 12.4545 22.81C12.6145 22.43 12.6945 22.0333 12.6945 21.62C12.6945 21.1667 12.6179 20.84 12.4645 20.64C12.3112 20.44 12.0879 20.34 11.7945 20.34C11.5145 20.34 11.2479 20.3633 10.9945 20.41C10.7479 20.4567 10.4779 20.54 10.1845 20.66L10.0245 24.66ZM15.264 17.2H17.014L16.894 20.25C17.074 20.0833 17.2807 19.93 17.514 19.79C17.7473 19.6433 17.9907 19.5267 18.244 19.44C18.504 19.3467 18.7573 19.3 19.004 19.3C19.6373 19.3 20.1073 19.4967 20.414 19.89C20.7273 20.2767 20.884 20.8267 20.884 21.54C20.884 22.3467 20.664 23.0167 20.224 23.55C19.784 24.0833 19.1673 24.48 18.374 24.74C17.5873 25 16.664 25.13 15.604 25.13L15.264 17.2ZM16.714 24.66C17.4007 24.4333 17.9373 24.1633 18.324 23.85C18.7107 23.5367 18.984 23.19 19.144 22.81C19.304 22.43 19.384 22.0333 19.384 21.62C19.384 21.1667 19.3073 20.84 19.154 20.64C19.0007 20.44 18.7773 20.34 18.484 20.34C18.204 20.34 17.9373 20.3633 17.684 20.41C17.4373 20.4567 17.1673 20.54 16.874 20.66L16.714 24.66Z" fill="#3C0046"/>
<defs>
<filter id="filter0_f_105_64" x="0" y="7.08105" width="22.5122" height="28.6685" filterUnits="userSpaceOnUse" color-interpolation-filters="sRGB">
<feFlood flood-opacity="0" result="BackgroundImageFix"/>
<feBlend mode="normal" in="SourceGraphic" in2="BackgroundImageFix" result="shape"/>
<feGaussianBlur stdDeviation="1" result="effect1_foregroundBlur_105_64"/>
</filter>
</defs>
</svg>
