<svg width="29" height="42" viewBox="0 0 29 42" fill="none" xmlns="http://www.w3.org/2000/svg">
<g filter="url(#filter0_f_105_95)">
<path d="M20.5122 21.4153C20.5122 28.2273 16.3681 33.7495 11.2561 33.7495C6.1441 33.7495 2 28.2273 2 21.4153C2 14.6033 6.1441 9.08105 11.2561 9.08105C16.3681 9.08105 20.5122 14.6033 20.5122 21.4153Z" fill="#7BF7E8"/>
<path d="M20.0122 21.4153C20.0122 24.7235 19.0053 27.6993 17.4012 29.8368C15.7973 31.9741 13.6196 33.2495 11.2561 33.2495C8.89263 33.2495 6.7149 31.9741 5.11096 29.8368C3.5069 27.6993 2.5 24.7235 2.5 21.4153C2.5 18.1071 3.5069 15.1313 5.11096 12.9938C6.7149 10.8564 8.89263 9.58105 11.2561 9.58105C13.6196 9.58105 15.7973 10.8564 17.4012 12.9938C19.0053 15.1313 20.0122 18.1071 20.0122 21.4153Z" stroke="#EA0000"/>
</g>
<path d="M8.32 25.11L7.14 22.59L3.18 23.28L2.14 25.11H1.99L4.72 17.21L6.3 16.97L9.5 24.98L8.32 25.11ZM5.51 19.11L3.96 21.88L7.02 22.35L5.51 19.11ZM10.1995 17.2H11.9495L11.8295 20.25C12.0095 20.0833 12.2162 19.93 12.4495 19.79C12.6829 19.6433 12.9262 19.5267 13.1795 19.44C13.4395 19.3467 13.6929 19.3 13.9395 19.3C14.5729 19.3 15.0429 19.4967 15.3495 19.89C15.6629 20.2767 15.8195 20.8267 15.8195 21.54C15.8195 22.3467 15.5995 23.0167 15.1595 23.55C14.7195 24.0833 14.1029 24.48 13.3095 24.74C12.5229 25 11.5995 25.13 10.5395 25.13L10.1995 17.2ZM11.6495 24.66C12.3362 24.4333 12.8729 24.1633 13.2595 23.85C13.6462 23.5367 13.9195 23.19 14.0795 22.81C14.2395 22.43 14.3195 22.0333 14.3195 21.62C14.3195 21.1667 14.2429 20.84 14.0895 20.64C13.9362 20.44 13.7129 20.34 13.4195 20.34C13.1395 20.34 12.8729 20.3633 12.6195 20.41C12.3729 20.4567 12.1029 20.54 11.8095 20.66L11.6495 24.66ZM16.889 17.2H18.639L18.519 20.25C18.699 20.0833 18.9057 19.93 19.139 19.79C19.3723 19.6433 19.6157 19.5267 19.869 19.44C20.129 19.3467 20.3823 19.3 20.629 19.3C21.2623 19.3 21.7323 19.4967 22.039 19.89C22.3523 20.2767 22.509 20.8267 22.509 21.54C22.509 22.3467 22.289 23.0167 21.849 23.55C21.409 24.0833 20.7923 24.48 19.999 24.74C19.2123 25 18.289 25.13 17.229 25.13L16.889 17.2ZM18.339 24.66C19.0257 24.4333 19.5623 24.1633 19.949 23.85C20.3357 23.5367 20.609 23.19 20.769 22.81C20.929 22.43 21.009 22.0333 21.009 21.62C21.009 21.1667 20.9323 20.84 20.779 20.64C20.6257 20.44 20.4023 20.34 20.109 20.34C19.829 20.34 19.5623 20.3633 19.309 20.41C19.0623 20.4567 18.7923 20.54 18.499 20.66L18.339 24.66Z" fill="#3C0046"/>
<defs>
<filter id="filter0_f_105_95" x="0" y="7.08105" width="22.5122" height="28.6685" filterUnits="userSpaceOnUse" color-interpolation-filters="sRGB">
<feFlood flood-opacity="0" result="BackgroundImageFix"/>
<feBlend mode="normal" in="SourceGraphic" in2="BackgroundImageFix" result="shape"/>
<feGaussianBlur stdDeviation="1" result="effect1_foregroundBlur_105_95"/>
</filter>
</defs>
</svg>
