<svg width="59" height="46" viewBox="0 0 59 46" fill="none" xmlns="http://www.w3.org/2000/svg">
<g filter="url(#filter0_f_105_94)">
<path d="M20.5122 22.8659C20.5122 28.8669 16.3681 33.7317 11.2561 33.7317C6.1441 33.7317 2 28.8669 2 22.8659C2 16.8648 6.1441 12 11.2561 12C16.3681 12 20.5122 16.8648 20.5122 22.8659Z" fill="#7BF7E8"/>
<path d="M20.0122 22.8659C20.0122 28.6689 16.0198 33.2317 11.2561 33.2317C6.49242 33.2317 2.5 28.6689 2.5 22.8659C2.5 17.0628 6.49242 12.5 11.2561 12.5C16.0198 12.5 20.0122 17.0628 20.0122 22.8659Z" stroke="#EA0000"/>
</g>
<path d="M4.6 23.56L4.53 27H3.25L2.88 19.2H4.7L4.68 19.95L8.1 19.1V20.72L4.67 20.37L4.61 23.16L7.65 22.42V24.01L4.6 23.56ZM11.6853 27L12.2553 24.8L10.5153 25.02L9.90531 27.13H9.80531L10.0953 25.08L8.66531 25.26V23.54L10.2953 23.71L10.5653 21.77L9.15531 21.58V21.38L10.6453 21.2L10.9353 19.2H12.1953L11.6453 21.08L13.2553 20.89L13.7453 19H13.8653L13.6553 20.84L15.1153 20.67V22.39L13.5053 22.17L13.2953 24L15.2253 24.19V24.41L13.2253 24.67L12.9653 27H11.6853ZM12.9453 22.1L11.4153 21.88L10.8753 23.76L12.4753 23.92L12.9453 22.1ZM18.5896 27L19.1596 24.8L17.4196 25.02L16.8096 27.13H16.7096L16.9996 25.08L15.5696 25.26V23.54L17.1996 23.71L17.4696 21.77L16.0596 21.58V21.38L17.5496 21.2L17.8396 19.2H19.0996L18.5496 21.08L20.1596 20.89L20.6496 19H20.7696L20.5596 20.84L22.0196 20.67V22.39L20.4096 22.17L20.1996 24L22.1296 24.19V24.41L20.1296 24.67L19.8696 27H18.5896ZM19.8496 22.1L18.3196 21.88L17.7796 23.76L19.3796 23.92L19.8496 22.1Z" fill="#3C0046"/>
<defs>
<filter id="filter0_f_105_94" x="0" y="10" width="22.5122" height="25.7319" filterUnits="userSpaceOnUse" color-interpolation-filters="sRGB">
<feFlood flood-opacity="0" result="BackgroundImageFix"/>
<feBlend mode="normal" in="SourceGraphic" in2="BackgroundImageFix" result="shape"/>
<feGaussianBlur stdDeviation="1" result="effect1_foregroundBlur_105_94"/>
</filter>
</defs>
</svg>
