<svg width="58" height="46" viewBox="0 0 58 46" fill="none" xmlns="http://www.w3.org/2000/svg">
<g filter="url(#filter0_f_105_125)">
<path d="M20.1874 22.8659C20.1874 28.8669 16.116 33.7317 11.0937 33.7317C6.07139 33.7317 2 28.8669 2 22.8659C2 16.8648 6.07139 12 11.0937 12C16.116 12 20.1874 16.8648 20.1874 22.8659Z" fill="#7BF7E8"/>
<path d="M19.6874 22.8659C19.6874 28.6778 15.7602 33.2317 11.0937 33.2317C6.42722 33.2317 2.5 28.6778 2.5 22.8659C2.5 17.0539 6.42722 12.5 11.0937 12.5C15.7602 12.5 19.6874 17.0539 19.6874 22.8659Z" stroke="#EA0000"/>
</g>
<path d="M8.32 27.11L7.14 24.59L3.18 25.28L2.14 27.11H1.99L4.72 19.21L6.3 18.97L9.5 26.98L8.32 27.11ZM5.51 21.11L3.96 23.88L7.02 24.35L5.51 21.11ZM12.7595 27L13.3295 24.8L11.5895 25.02L10.9795 27.13H10.8795L11.1695 25.08L9.73953 25.26V23.54L11.3695 23.71L11.6395 21.77L10.2295 21.58V21.38L11.7195 21.2L12.0095 19.2H13.2695L12.7195 21.08L14.3295 20.89L14.8195 19H14.9395L14.7295 20.84L16.1895 20.67V22.39L14.5795 22.17L14.3695 24L16.2995 24.19V24.41L14.2995 24.67L14.0395 27H12.7595ZM14.0195 22.1L12.4895 21.88L11.9495 23.76L13.5495 23.92L14.0195 22.1ZM19.6638 27L20.2338 24.8L18.4938 25.02L17.8838 27.13H17.7838L18.0738 25.08L16.6438 25.26V23.54L18.2738 23.71L18.5438 21.77L17.1338 21.58V21.38L18.6238 21.2L18.9138 19.2H20.1738L19.6238 21.08L21.2338 20.89L21.7238 19H21.8438L21.6338 20.84L23.0938 20.67V22.39L21.4838 22.17L21.2738 24L23.2038 24.19V24.41L21.2038 24.67L20.9438 27H19.6638ZM20.9238 22.1L19.3938 21.88L18.8538 23.76L20.4538 23.92L20.9238 22.1Z" fill="#3C0046"/>
<defs>
<filter id="filter0_f_105_125" x="0" y="10" width="22.1875" height="25.7319" filterUnits="userSpaceOnUse" color-interpolation-filters="sRGB">
<feFlood flood-opacity="0" result="BackgroundImageFix"/>
<feBlend mode="normal" in="SourceGraphic" in2="BackgroundImageFix" result="shape"/>
<feGaussianBlur stdDeviation="1" result="effect1_foregroundBlur_105_125"/>
</filter>
</defs>
</svg>
