<svg width="23" height="33" viewBox="0 0 23 33" fill="none" xmlns="http://www.w3.org/2000/svg">
<g filter="url(#filter0_f_106_6)">
<path d="M20.5122 16.8659C20.5122 22.8669 16.3681 27.7317 11.2561 27.7317C6.1441 27.7317 2 22.8669 2 16.8659C2 10.8648 6.1441 6 11.2561 6C16.3681 6 20.5122 10.8648 20.5122 16.8659Z" fill="#7BF7E8"/>
<path d="M20.0122 16.8659C20.0122 22.6689 16.0198 27.2317 11.2561 27.2317C6.49242 27.2317 2.5 22.6689 2.5 16.8659C2.5 11.0628 6.49242 6.5 11.2561 6.5C16.0198 6.5 20.0122 11.0628 20.0122 16.8659Z" stroke="#EA0000"/>
</g>
<path d="M4.88 13.2H6.7L6.69 13.73C6.97667 13.5567 7.27 13.4267 7.57 13.34C7.87 13.2467 8.16667 13.2 8.46 13.2C9.21333 13.2 9.76333 13.3467 10.11 13.64C10.4633 13.9267 10.64 14.2867 10.64 14.72C10.64 14.76 10.6367 14.8 10.63 14.84C10.63 14.88 10.6267 14.92 10.62 14.96C10.58 15.28 10.41 15.6 10.11 15.92C9.81 16.24 9.33667 16.5367 8.69 16.81C9.19667 16.8367 9.62333 16.94 9.97 17.12C10.3167 17.3 10.58 17.51 10.76 17.75C10.94 17.99 11.03 18.22 11.03 18.44C11.03 18.9933 10.8 19.4733 10.34 19.88C9.88667 20.28 9.23 20.59 8.37 20.81C7.51 21.0233 6.47 21.13 5.25 21.13L4.88 13.2ZM6.62 17.16C7.2 16.8867 7.66333 16.61 8.01 16.33C8.36333 16.05 8.62 15.7933 8.78 15.56C8.94667 15.32 9.04 15.1367 9.06 15.01C9.06667 14.9833 9.07 14.96 9.07 14.94C9.07 14.9133 9.07 14.8867 9.07 14.86C9.07 14.6333 8.99667 14.4267 8.85 14.24C8.70333 14.0467 8.50333 13.95 8.25 13.95C7.96333 13.95 7.69667 13.9667 7.45 14C7.20333 14.0267 6.94667 14.08 6.68 14.16L6.62 17.16ZM6.54 20.66C7.1 20.5333 7.55667 20.3867 7.91 20.22C8.27 20.0467 8.54667 19.8633 8.74 19.67C8.94 19.4767 9.08 19.28 9.16 19.08C9.24 18.8733 9.28 18.67 9.28 18.47C9.28 18.3567 9.24333 18.2467 9.17 18.14C9.09667 18.0267 8.96333 17.9233 8.77 17.83C8.57667 17.73 8.30333 17.65 7.95 17.59C7.60333 17.5233 7.15667 17.4867 6.61 17.48L6.54 20.66ZM14.6033 21L15.1733 18.8L13.4333 19.02L12.8233 21.13H12.7233L13.0133 19.08L11.5833 19.26V17.54L13.2133 17.71L13.4833 15.77L12.0733 15.58V15.38L13.5633 15.2L13.8533 13.2H15.1133L14.5633 15.08L16.1733 14.89L16.6633 13H16.7833L16.5733 14.84L18.0333 14.67V16.39L16.4233 16.17L16.2133 18L18.1433 18.19V18.41L16.1433 18.67L15.8833 21H14.6033ZM15.8633 16.1L14.3333 15.88L13.7933 17.76L15.3933 17.92L15.8633 16.1Z" fill="#3C0046"/>
<defs>
<filter id="filter0_f_106_6" x="0" y="4" width="22.5122" height="25.7319" filterUnits="userSpaceOnUse" color-interpolation-filters="sRGB">
<feFlood flood-opacity="0" result="BackgroundImageFix"/>
<feBlend mode="normal" in="SourceGraphic" in2="BackgroundImageFix" result="shape"/>
<feGaussianBlur stdDeviation="1" result="effect1_foregroundBlur_106_6"/>
</filter>
</defs>
</svg>
