<svg width="59" height="46" viewBox="0 0 59 46" fill="none" xmlns="http://www.w3.org/2000/svg">
<g filter="url(#filter0_f_105_83)">
<path d="M20.5122 22.8659C20.5122 28.8669 16.3681 33.7317 11.2561 33.7317C6.1441 33.7317 2 28.8669 2 22.8659C2 16.8648 6.1441 12 11.2561 12C16.3681 12 20.5122 16.8648 20.5122 22.8659Z" fill="#7BF7E8"/>
<path d="M20.0122 22.8659C20.0122 28.6689 16.0198 33.2317 11.2561 33.2317C6.49242 33.2317 2.5 28.6689 2.5 22.8659C2.5 17.0628 6.49242 12.5 11.2561 12.5C16.0198 12.5 20.0122 17.0628 20.0122 22.8659Z" stroke="#EA0000"/>
</g>
<path d="M3.25 27.1L2.88 19.2H4.7L4.68 19.96L8.28 19.1V20.72L4.67 20.37L4.61 22.9L7.77 22.16V23.75L4.6 23.3L4.54 25.71L8.48 26.13V26.23L3.25 27.1ZM12.1345 27L12.7045 24.8L10.9645 25.02L10.3545 27.13H10.2545L10.5445 25.08L9.11453 25.26V23.54L10.7445 23.71L11.0145 21.77L9.60453 21.58V21.38L11.0945 21.2L11.3845 19.2H12.6445L12.0945 21.08L13.7045 20.89L14.1945 19H14.3145L14.1045 20.84L15.5645 20.67V22.39L13.9545 22.17L13.7445 24L15.6745 24.19V24.41L13.6745 24.67L13.4145 27H12.1345ZM13.3945 22.1L11.8645 21.88L11.3245 23.76L12.9245 23.92L13.3945 22.1ZM19.0388 27L19.6088 24.8L17.8688 25.02L17.2588 27.13H17.1588L17.4488 25.08L16.0188 25.26V23.54L17.6488 23.71L17.9188 21.77L16.5088 21.58V21.38L17.9988 21.2L18.2888 19.2H19.5488L18.9988 21.08L20.6088 20.89L21.0988 19H21.2188L21.0088 20.84L22.4688 20.67V22.39L20.8588 22.17L20.6488 24L22.5788 24.19V24.41L20.5788 24.67L20.3188 27H19.0388ZM20.2988 22.1L18.7688 21.88L18.2288 23.76L19.8288 23.92L20.2988 22.1Z" fill="#3C0046"/>
<defs>
<filter id="filter0_f_105_83" x="0" y="10" width="22.5122" height="25.7319" filterUnits="userSpaceOnUse" color-interpolation-filters="sRGB">
<feFlood flood-opacity="0" result="BackgroundImageFix"/>
<feBlend mode="normal" in="SourceGraphic" in2="BackgroundImageFix" result="shape"/>
<feGaussianBlur stdDeviation="1" result="effect1_foregroundBlur_105_83"/>
</filter>
</defs>
</svg>
