<svg width="59" height="46" viewBox="0 0 59 46" fill="none" xmlns="http://www.w3.org/2000/svg">
<g filter="url(#filter0_f_103_60)">
<path d="M20.5122 22.8659C20.5122 28.8669 16.3681 33.7317 11.2561 33.7317C6.1441 33.7317 2 28.8669 2 22.8659C2 16.8648 6.1441 12 11.2561 12C16.3681 12 20.5122 16.8648 20.5122 22.8659Z" fill="#7BF7E8"/>
<path d="M20.0122 22.8659C20.0122 28.6689 16.0198 33.2317 11.2561 33.2317C6.49242 33.2317 2.5 28.6689 2.5 22.8659C2.5 17.0628 6.49242 12.5 11.2561 12.5C16.0198 12.5 20.0122 17.0628 20.0122 22.8659Z" stroke="#EA0000"/>
</g>
<path d="M8.76 27.2C7.62 27.2 6.65 27.12 5.85 26.96C5.05 26.8 4.40333 26.5733 3.91 26.28C3.41667 25.9867 3.05333 25.6367 2.82 25.23C2.59333 24.8167 2.48 24.36 2.48 23.86C2.48 23.06 2.58333 22.3567 2.79 21.75C2.99667 21.1433 3.27333 20.6367 3.62 20.23C3.96667 19.8167 4.35333 19.5067 4.78 19.3C5.20667 19.0933 5.64 18.99 6.08 18.99C6.59333 18.99 7.11 19.0433 7.63 19.15C8.15 19.2567 8.62333 19.42 9.05 19.64L8.49 21.27C7.64333 20.41 6.74 19.98 5.78 19.98C5.55333 19.98 5.34 20.0733 5.14 20.26C4.94 20.4467 4.76667 20.6967 4.62 21.01C4.47333 21.3167 4.35667 21.6567 4.27 22.03C4.19 22.3967 4.15 22.76 4.15 23.12C4.15 23.62 4.22 24.0767 4.36 24.49C4.50667 24.8967 4.75333 25.2633 5.1 25.59C5.44667 25.91 5.92 26.1933 6.52 26.44C7.12 26.68 7.87333 26.89 8.78 27.07L8.76 27.2ZM12.613 27L13.183 24.8L11.443 25.02L10.833 27.13H10.733L11.023 25.08L9.59305 25.26V23.54L11.223 23.71L11.493 21.77L10.083 21.58V21.38L11.573 21.2L11.863 19.2H13.123L12.573 21.08L14.183 20.89L14.673 19H14.793L14.583 20.84L16.043 20.67V22.39L14.433 22.17L14.223 24L16.153 24.19V24.41L14.153 24.67L13.893 27H12.613ZM13.873 22.1L12.343 21.88L11.803 23.76L13.403 23.92L13.873 22.1ZM19.5173 27L20.0873 24.8L18.3473 25.02L17.7373 27.13H17.6373L17.9273 25.08L16.4973 25.26V23.54L18.1273 23.71L18.3973 21.77L16.9873 21.58V21.38L18.4773 21.2L18.7673 19.2H20.0273L19.4773 21.08L21.0873 20.89L21.5773 19H21.6973L21.4873 20.84L22.9473 20.67V22.39L21.3373 22.17L21.1273 24L23.0573 24.19V24.41L21.0573 24.67L20.7973 27H19.5173ZM20.7773 22.1L19.2473 21.88L18.7073 23.76L20.3073 23.92L20.7773 22.1Z" fill="#3C0046"/>
<defs>
<filter id="filter0_f_103_60" x="0" y="10" width="22.5122" height="25.7319" filterUnits="userSpaceOnUse" color-interpolation-filters="sRGB">
<feFlood flood-opacity="0" result="BackgroundImageFix"/>
<feBlend mode="normal" in="SourceGraphic" in2="BackgroundImageFix" result="shape"/>
<feGaussianBlur stdDeviation="1" result="effect1_foregroundBlur_103_60"/>
</filter>
</defs>
</svg>
