<svg width="28" height="42" viewBox="0 0 28 42" fill="none" xmlns="http://www.w3.org/2000/svg">
<g filter="url(#filter0_f_105_71)">
<path d="M20.5122 21.4153C20.5122 28.2273 16.3681 33.7495 11.2561 33.7495C6.1441 33.7495 2 28.2273 2 21.4153C2 14.6033 6.1441 9.08105 11.2561 9.08105C16.3681 9.08105 20.5122 14.6033 20.5122 21.4153Z" fill="#7BF7E8"/>
<path d="M20.0122 21.4153C20.0122 24.7235 19.0053 27.6993 17.4012 29.8368C15.7973 31.9741 13.6196 33.2495 11.2561 33.2495C8.89263 33.2495 6.7149 31.9741 5.11096 29.8368C3.5069 27.6993 2.5 24.7235 2.5 21.4153C2.5 18.1071 3.5069 15.1313 5.11096 12.9938C6.7149 10.8564 8.89263 9.58105 11.2561 9.58105C13.6196 9.58105 15.7973 10.8564 17.4012 12.9938C19.0053 15.1313 20.0122 18.1071 20.0122 21.4153Z" stroke="#EA0000"/>
</g>
<path d="M4.9 22.84L4.795 28H2.875L2.32 16.3H5.05L5.02 17.425L10.15 16.15V18.58L5.005 18.055L4.915 22.24L9.475 21.13V23.515L4.9 22.84ZM11.688 16.3H14.313L14.133 20.875C14.403 20.625 14.713 20.395 15.063 20.185C15.413 19.965 15.778 19.79 16.158 19.66C16.548 19.52 16.928 19.45 17.298 19.45C18.248 19.45 18.953 19.745 19.413 20.335C19.883 20.915 20.118 21.74 20.118 22.81C20.118 24.02 19.788 25.025 19.128 25.825C18.468 26.625 17.543 27.22 16.353 27.61C15.173 28 13.788 28.195 12.198 28.195L11.688 16.3ZM13.863 27.49C14.893 27.15 15.698 26.745 16.278 26.275C16.858 25.805 17.268 25.285 17.508 24.715C17.748 24.145 17.868 23.55 17.868 22.93C17.868 22.25 17.753 21.76 17.523 21.46C17.293 21.16 16.958 21.01 16.518 21.01C16.098 21.01 15.698 21.045 15.318 21.115C14.948 21.185 14.543 21.31 14.103 21.49L13.863 27.49Z" fill="#3C0046"/>
<defs>
<filter id="filter0_f_105_71" x="0" y="7.08105" width="22.5122" height="28.6685" filterUnits="userSpaceOnUse" color-interpolation-filters="sRGB">
<feFlood flood-opacity="0" result="BackgroundImageFix"/>
<feBlend mode="normal" in="SourceGraphic" in2="BackgroundImageFix" result="shape"/>
<feGaussianBlur stdDeviation="1" result="effect1_foregroundBlur_105_71"/>
</filter>
</defs>
</svg>
