<svg width="29" height="42" viewBox="0 0 29 42" fill="none" xmlns="http://www.w3.org/2000/svg">
<g filter="url(#filter0_f_105_109)">
<path d="M20.5122 21.4153C20.5122 28.2273 16.3681 33.7495 11.2561 33.7495C6.1441 33.7495 2 28.2273 2 21.4153C2 14.6033 6.1441 9.08105 11.2561 9.08105C16.3681 9.08105 20.5122 14.6033 20.5122 21.4153Z" fill="#7BF7E8"/>
<path d="M20.0122 21.4153C20.0122 24.7235 19.0053 27.6993 17.4012 29.8368C15.7973 31.9741 13.6196 33.2495 11.2561 33.2495C8.89263 33.2495 6.7149 31.9741 5.11096 29.8368C3.5069 27.6993 2.5 24.7235 2.5 21.4153C2.5 18.1071 3.5069 15.1313 5.11096 12.9938C6.7149 10.8564 8.89263 9.58105 11.2561 9.58105C13.6196 9.58105 15.7973 10.8564 17.4012 12.9938C19.0053 15.1313 20.0122 18.1071 20.0122 21.4153Z" stroke="#EA0000"/>
</g>
<path d="M2.88 17.2H4.7L4.69 17.73C4.97667 17.5567 5.27 17.4267 5.57 17.34C5.87 17.2467 6.16667 17.2 6.46 17.2C7.21333 17.2 7.76333 17.3467 8.11 17.64C8.46333 17.9267 8.64 18.2867 8.64 18.72C8.64 18.76 8.63667 18.8 8.63 18.84C8.63 18.88 8.62667 18.92 8.62 18.96C8.58 19.28 8.41 19.6 8.11 19.92C7.81 20.24 7.33667 20.5367 6.69 20.81C7.19667 20.8367 7.62333 20.94 7.97 21.12C8.31667 21.3 8.58 21.51 8.76 21.75C8.94 21.99 9.03 22.22 9.03 22.44C9.03 22.9933 8.8 23.4733 8.34 23.88C7.88667 24.28 7.23 24.59 6.37 24.81C5.51 25.0233 4.47 25.13 3.25 25.13L2.88 17.2ZM4.62 21.16C5.2 20.8867 5.66333 20.61 6.01 20.33C6.36333 20.05 6.62 19.7933 6.78 19.56C6.94667 19.32 7.04 19.1367 7.06 19.01C7.06667 18.9833 7.07 18.96 7.07 18.94C7.07 18.9133 7.07 18.8867 7.07 18.86C7.07 18.6333 6.99667 18.4267 6.85 18.24C6.70333 18.0467 6.50333 17.95 6.25 17.95C5.96333 17.95 5.69667 17.9667 5.45 18C5.20333 18.0267 4.94667 18.08 4.68 18.16L4.62 21.16ZM4.54 24.66C5.1 24.5333 5.55667 24.3867 5.91 24.22C6.27 24.0467 6.54667 23.8633 6.74 23.67C6.94 23.4767 7.08 23.28 7.16 23.08C7.24 22.8733 7.28 22.67 7.28 22.47C7.28 22.3567 7.24333 22.2467 7.17 22.14C7.09667 22.0267 6.96333 21.9233 6.77 21.83C6.57667 21.73 6.30333 21.65 5.95 21.59C5.60333 21.5233 5.15667 21.4867 4.61 21.48L4.54 24.66ZM10.0433 17.2H11.7933L11.6733 20.25C11.8533 20.0833 12.0599 19.93 12.2933 19.79C12.5266 19.6433 12.7699 19.5267 13.0233 19.44C13.2833 19.3467 13.5366 19.3 13.7833 19.3C14.4166 19.3 14.8866 19.4967 15.1933 19.89C15.5066 20.2767 15.6633 20.8267 15.6633 21.54C15.6633 22.3467 15.4433 23.0167 15.0033 23.55C14.5633 24.0833 13.9466 24.48 13.1533 24.74C12.3666 25 11.4433 25.13 10.3833 25.13L10.0433 17.2ZM11.4933 24.66C12.1799 24.4333 12.7166 24.1633 13.1033 23.85C13.4899 23.5367 13.7633 23.19 13.9233 22.81C14.0833 22.43 14.1633 22.0333 14.1633 21.62C14.1633 21.1667 14.0866 20.84 13.9333 20.64C13.7799 20.44 13.5566 20.34 13.2633 20.34C12.9833 20.34 12.7166 20.3633 12.4633 20.41C12.2166 20.4567 11.9466 20.54 11.6533 20.66L11.4933 24.66ZM16.7327 17.2H18.4827L18.3627 20.25C18.5427 20.0833 18.7494 19.93 18.9827 19.79C19.2161 19.6433 19.4594 19.5267 19.7127 19.44C19.9727 19.3467 20.2261 19.3 20.4727 19.3C21.1061 19.3 21.5761 19.4967 21.8827 19.89C22.1961 20.2767 22.3527 20.8267 22.3527 21.54C22.3527 22.3467 22.1327 23.0167 21.6927 23.55C21.2527 24.0833 20.6361 24.48 19.8427 24.74C19.0561 25 18.1327 25.13 17.0727 25.13L16.7327 17.2ZM18.1827 24.66C18.8694 24.4333 19.4061 24.1633 19.7927 23.85C20.1794 23.5367 20.4527 23.19 20.6127 22.81C20.7727 22.43 20.8527 22.0333 20.8527 21.62C20.8527 21.1667 20.7761 20.84 20.6227 20.64C20.4694 20.44 20.2461 20.34 19.9527 20.34C19.6727 20.34 19.4061 20.3633 19.1527 20.41C18.9061 20.4567 18.6361 20.54 18.3427 20.66L18.1827 24.66Z" fill="#3C0046"/>
<defs>
<filter id="filter0_f_105_109" x="0" y="7.08105" width="22.5122" height="28.6685" filterUnits="userSpaceOnUse" color-interpolation-filters="sRGB">
<feFlood flood-opacity="0" result="BackgroundImageFix"/>
<feBlend mode="normal" in="SourceGraphic" in2="BackgroundImageFix" result="shape"/>
<feGaussianBlur stdDeviation="1" result="effect1_foregroundBlur_105_109"/>
</filter>
</defs>
</svg>
