<svg width="29" height="42" viewBox="0 0 29 42" fill="none" xmlns="http://www.w3.org/2000/svg">
<g filter="url(#filter0_f_105_116)">
<path d="M20.5122 21.4153C20.5122 28.2273 16.3681 33.7495 11.2561 33.7495C6.1441 33.7495 2 28.2273 2 21.4153C2 14.6033 6.1441 9.08105 11.2561 9.08105C16.3681 9.08105 20.5122 14.6033 20.5122 21.4153Z" fill="#7BF7E8"/>
<path d="M20.0122 21.4153C20.0122 24.7235 19.0053 27.6993 17.4012 29.8368C15.7973 31.9741 13.6196 33.2495 11.2561 33.2495C8.89263 33.2495 6.7149 31.9741 5.11096 29.8368C3.5069 27.6993 2.5 24.7235 2.5 21.4153C2.5 18.1071 3.5069 15.1313 5.11096 12.9938C6.7149 10.8564 8.89263 9.58105 11.2561 9.58105C13.6196 9.58105 15.7973 10.8564 17.4012 12.9938C19.0053 15.1313 20.0122 18.1071 20.0122 21.4153Z" stroke="#EA0000"/>
</g>
<path d="M8.76 25.2C7.62 25.2 6.65 25.12 5.85 24.96C5.05 24.8 4.40333 24.5733 3.91 24.28C3.41667 23.9867 3.05333 23.6367 2.82 23.23C2.59333 22.8167 2.48 22.36 2.48 21.86C2.48 21.06 2.58333 20.3567 2.79 19.75C2.99667 19.1433 3.27333 18.6367 3.62 18.23C3.96667 17.8167 4.35333 17.5067 4.78 17.3C5.20667 17.0933 5.64 16.99 6.08 16.99C6.59333 16.99 7.11 17.0433 7.63 17.15C8.15 17.2567 8.62333 17.42 9.05 17.64L8.49 19.27C7.64333 18.41 6.74 17.98 5.78 17.98C5.55333 17.98 5.34 18.0733 5.14 18.26C4.94 18.4467 4.76667 18.6967 4.62 19.01C4.47333 19.3167 4.35667 19.6567 4.27 20.03C4.19 20.3967 4.15 20.76 4.15 21.12C4.15 21.62 4.22 22.0767 4.36 22.49C4.50667 22.8967 4.75333 23.2633 5.1 23.59C5.44667 23.91 5.92 24.1933 6.52 24.44C7.12 24.68 7.87333 24.89 8.78 25.07L8.76 25.2ZM10.053 17.2H11.803L11.683 20.25C11.863 20.0833 12.0697 19.93 12.303 19.79C12.5364 19.6433 12.7797 19.5267 13.033 19.44C13.293 19.3467 13.5464 19.3 13.793 19.3C14.4264 19.3 14.8964 19.4967 15.203 19.89C15.5164 20.2767 15.673 20.8267 15.673 21.54C15.673 22.3467 15.453 23.0167 15.013 23.55C14.573 24.0833 13.9564 24.48 13.163 24.74C12.3764 25 11.453 25.13 10.393 25.13L10.053 17.2ZM11.503 24.66C12.1897 24.4333 12.7264 24.1633 13.113 23.85C13.4997 23.5367 13.773 23.19 13.933 22.81C14.093 22.43 14.173 22.0333 14.173 21.62C14.173 21.1667 14.0964 20.84 13.943 20.64C13.7897 20.44 13.5664 20.34 13.273 20.34C12.993 20.34 12.7264 20.3633 12.473 20.41C12.2264 20.4567 11.9564 20.54 11.663 20.66L11.503 24.66ZM16.7425 17.2H18.4925L18.3725 20.25C18.5525 20.0833 18.7592 19.93 18.9925 19.79C19.2258 19.6433 19.4692 19.5267 19.7225 19.44C19.9825 19.3467 20.2358 19.3 20.4825 19.3C21.1158 19.3 21.5858 19.4967 21.8925 19.89C22.2058 20.2767 22.3625 20.8267 22.3625 21.54C22.3625 22.3467 22.1425 23.0167 21.7025 23.55C21.2625 24.0833 20.6458 24.48 19.8525 24.74C19.0658 25 18.1425 25.13 17.0825 25.13L16.7425 17.2ZM18.1925 24.66C18.8792 24.4333 19.4158 24.1633 19.8025 23.85C20.1892 23.5367 20.4625 23.19 20.6225 22.81C20.7825 22.43 20.8625 22.0333 20.8625 21.62C20.8625 21.1667 20.7858 20.84 20.6325 20.64C20.4792 20.44 20.2558 20.34 19.9625 20.34C19.6825 20.34 19.4158 20.3633 19.1625 20.41C18.9158 20.4567 18.6458 20.54 18.3525 20.66L18.1925 24.66Z" fill="#3C0046"/>
<defs>
<filter id="filter0_f_105_116" x="0" y="7.08105" width="22.5122" height="28.6685" filterUnits="userSpaceOnUse" color-interpolation-filters="sRGB">
<feFlood flood-opacity="0" result="BackgroundImageFix"/>
<feBlend mode="normal" in="SourceGraphic" in2="BackgroundImageFix" result="shape"/>
<feGaussianBlur stdDeviation="1" result="effect1_foregroundBlur_105_116"/>
</filter>
</defs>
</svg>
