<svg width="23" height="26" viewBox="0 0 23 26" fill="none" xmlns="http://www.w3.org/2000/svg">
<g filter="url(#filter0_f_19_1292)">
<path d="M20.5122 12.8659C20.5122 18.8669 16.3681 23.7317 11.2561 23.7317C6.1441 23.7317 2 18.8669 2 12.8659C2 6.86481 6.1441 2 11.2561 2C16.3681 2 20.5122 6.86481 20.5122 12.8659Z" fill="#7BF7E8"/>
</g>
<g filter="url(#filter1_f_19_1292)">
<path fill-rule="evenodd" clip-rule="evenodd" d="M11.2561 22.7317C15.6715 22.7317 19.5122 18.471 19.5122 12.8659C19.5122 7.26072 15.6715 3 11.2561 3C6.84074 3 3 7.26072 3 12.8659C3 18.471 6.84074 22.7317 11.2561 22.7317ZM11.2561 23.7317C16.3681 23.7317 20.5122 18.8669 20.5122 12.8659C20.5122 6.86481 16.3681 2 11.2561 2C6.1441 2 2 6.86481 2 12.8659C2 18.8669 6.1441 23.7317 11.2561 23.7317Z" fill="#EA0000"/>
</g>
<path d="M5.37502 17.1101L4.96802 8.42006H6.97002L6.94802 9.25606L10.908 8.31006V10.0921L6.93702 9.70706L6.87102 12.4901L10.347 11.6761V13.4251L6.86002 12.9301L6.79402 15.5811L11.128 16.0431V16.1531L5.37502 17.1101Z" fill="#3C0046"/>
<path d="M12.332 8.42006H14.257L14.125 11.7751C14.323 11.5917 14.5503 11.4231 14.807 11.2691C15.0637 11.1077 15.3313 10.9794 15.61 10.8841C15.896 10.7814 16.1747 10.7301 16.446 10.7301C17.1427 10.7301 17.6597 10.9464 17.997 11.3791C18.3417 11.8044 18.514 12.4094 18.514 13.1941C18.514 14.0814 18.272 14.8184 17.788 15.4051C17.304 15.9917 16.6257 16.4281 15.753 16.7141C14.8877 17.0001 13.872 17.1431 12.706 17.1431L12.332 8.42006ZM13.927 16.6261C14.6823 16.3767 15.2727 16.0797 15.698 15.7351C16.1233 15.3904 16.424 15.0091 16.6 14.5911C16.776 14.1731 16.864 13.7367 16.864 13.2821C16.864 12.7834 16.7797 12.4241 16.611 12.2041C16.4423 11.9841 16.1967 11.8741 15.874 11.8741C15.566 11.8741 15.2727 11.8997 14.994 11.9511C14.7227 12.0024 14.4257 12.0941 14.103 12.2261L13.927 16.6261Z" fill="#3C0046"/>
<defs>
<filter id="filter0_f_19_1292" x="0" y="0" width="22.5122" height="25.7319" filterUnits="userSpaceOnUse" color-interpolation-filters="sRGB">
<feFlood flood-opacity="0" result="BackgroundImageFix"/>
<feBlend mode="normal" in="SourceGraphic" in2="BackgroundImageFix" result="shape"/>
<feGaussianBlur stdDeviation="1" result="effect1_foregroundBlur_19_1292"/>
</filter>
<filter id="filter1_f_19_1292" x="0" y="0" width="22.5122" height="25.7319" filterUnits="userSpaceOnUse" color-interpolation-filters="sRGB">
<feFlood flood-opacity="0" result="BackgroundImageFix"/>
<feBlend mode="normal" in="SourceGraphic" in2="BackgroundImageFix" result="shape"/>
<feGaussianBlur stdDeviation="1" result="effect1_foregroundBlur_19_1292"/>
</filter>
</defs>
</svg>
