<svg width="23" height="33" viewBox="0 0 23 33" fill="none" xmlns="http://www.w3.org/2000/svg">
<g filter="url(#filter0_f_19_1949)">
<path d="M20.5122 16.8659C20.5122 22.8669 16.3681 27.7317 11.2561 27.7317C6.1441 27.7317 2 22.8669 2 16.8659C2 10.8648 6.1441 6 11.2561 6C16.3681 6 20.5122 10.8648 20.5122 16.8659Z" fill="#7BF7E8"/>
<path d="M20.0122 16.8659C20.0122 22.6689 16.0198 27.2317 11.2561 27.2317C6.49242 27.2317 2.5 22.6689 2.5 16.8659C2.5 11.0628 6.49242 6.5 11.2561 6.5C16.0198 6.5 20.0122 11.0628 20.0122 16.8659Z" stroke="#EA0000"/>
</g>
<path d="M6.6 17.56L6.53 21H5.25L4.88 13.2H6.7L6.68 13.95L10.1 13.1V14.72L6.67 14.37L6.61 17.16L9.65 16.42V18.01L6.6 17.56ZM13.6853 21L14.2553 18.8L12.5153 19.02L11.9053 21.13H11.8053L12.0953 19.08L10.6653 19.26V17.54L12.2953 17.71L12.5653 15.77L11.1553 15.58V15.38L12.6453 15.2L12.9353 13.2H14.1953L13.6453 15.08L15.2553 14.89L15.7453 13H15.8653L15.6553 14.84L17.1153 14.67V16.39L15.5053 16.17L15.2953 18L17.2253 18.19V18.41L15.2253 18.67L14.9653 21H13.6853ZM14.9453 16.1L13.4153 15.88L12.8753 17.76L14.4753 17.92L14.9453 16.1Z" fill="#3C0046"/>
<defs>
<filter id="filter0_f_19_1949" x="0" y="4" width="22.5122" height="25.7319" filterUnits="userSpaceOnUse" color-interpolation-filters="sRGB">
<feFlood flood-opacity="0" result="BackgroundImageFix"/>
<feBlend mode="normal" in="SourceGraphic" in2="BackgroundImageFix" result="shape"/>
<feGaussianBlur stdDeviation="1" result="effect1_foregroundBlur_19_1949"/>
</filter>
</defs>
</svg>
