<svg width="24" height="27" viewBox="0 0 24 27" fill="none" xmlns="http://www.w3.org/2000/svg">
<g filter="url(#filter0_f_19_23)">
<path d="M22 13.3768C22 19.5597 17.5228 24.5719 12 24.5719C6.47715 24.5719 2 19.5597 2 13.3768C2 7.19387 6.47715 2.18164 12 2.18164C17.5228 2.18164 22 7.19387 22 13.3768Z" fill="#7BF7E8"/>
</g>
<g filter="url(#filter1_f_19_23)">
<path fill-rule="evenodd" clip-rule="evenodd" d="M12 23.5719C16.8674 23.5719 21 19.1165 21 13.3768C21 7.63701 16.8674 3.18164 12 3.18164C7.1326 3.18164 3 7.63701 3 13.3768C3 19.1165 7.1326 23.5719 12 23.5719ZM12 24.5719C17.5228 24.5719 22 19.5597 22 13.3768C22 7.19387 17.5228 2.18164 12 2.18164C6.47715 2.18164 2 7.19387 2 13.3768C2 19.5597 6.47715 24.5719 12 24.5719Z" fill="#EA0000"/>
</g>
<path d="M17.6809 22.4C14.6809 22.4 12.2608 22.1266 10.4208 21.58C8.58085 21.02 7.23418 20.24 6.38085 19.24C5.54085 18.2266 5.12085 17.0533 5.12085 15.72C5.12085 14.12 5.32752 12.7133 5.74085 11.5C6.15418 10.2866 6.70752 9.27331 7.40085 8.45998C8.09418 7.63331 8.86752 7.01331 9.72085 6.59998C10.5742 6.18665 11.4409 5.97998 12.3209 5.97998C13.3475 5.97998 14.3808 6.08665 15.4208 6.29998C16.4608 6.51331 17.4075 6.83998 18.2608 7.27998L17.1409 10.54C16.3009 9.68665 15.4208 9.01998 14.5008 8.53998C13.5942 8.04665 12.6675 7.79998 11.7208 7.79998C11.2675 7.79998 10.8342 7.99998 10.4208 8.39998C10.0075 8.78665 9.64085 9.29998 9.32085 9.93998C9.00085 10.5666 8.74752 11.26 8.56085 12.02C8.38752 12.78 8.30085 13.52 8.30085 14.24C8.30085 15.1733 8.42085 16.02 8.66085 16.78C8.90085 17.5266 9.30752 18.2 9.88085 18.8C10.4675 19.3866 11.2608 19.9 12.2608 20.34C13.2742 20.7666 14.5475 21.1266 16.0808 21.42L15.6408 16.12L11.4208 15.12V14.88L18.7808 13.08L18.2809 22.4H17.6809Z" fill="#3C0046"/>
<defs>
<filter id="filter0_f_19_23" x="0" y="0.181641" width="24" height="26.3901" filterUnits="userSpaceOnUse" color-interpolation-filters="sRGB">
<feFlood flood-opacity="0" result="BackgroundImageFix"/>
<feBlend mode="normal" in="SourceGraphic" in2="BackgroundImageFix" result="shape"/>
<feGaussianBlur stdDeviation="1" result="effect1_foregroundBlur_19_23"/>
</filter>
<filter id="filter1_f_19_23" x="0" y="0.181641" width="24" height="26.3901" filterUnits="userSpaceOnUse" color-interpolation-filters="sRGB">
<feFlood flood-opacity="0" result="BackgroundImageFix"/>
<feBlend mode="normal" in="SourceGraphic" in2="BackgroundImageFix" result="shape"/>
<feGaussianBlur stdDeviation="1" result="effect1_foregroundBlur_19_23"/>
</filter>
</defs>
</svg>
