<svg width="28" height="42" viewBox="0 0 28 42" fill="none" xmlns="http://www.w3.org/2000/svg">
<g filter="url(#filter0_f_105_77)">
<path d="M20.5122 21.4153C20.5122 28.2273 16.3681 33.7495 11.2561 33.7495C6.1441 33.7495 2 28.2273 2 21.4153C2 14.6033 6.1441 9.08105 11.2561 9.08105C16.3681 9.08105 20.5122 14.6033 20.5122 21.4153Z" fill="#7BF7E8"/>
<path d="M20.0122 21.4153C20.0122 24.7235 19.0053 27.6993 17.4012 29.8368C15.7973 31.9741 13.6196 33.2495 11.2561 33.2495C8.89263 33.2495 6.7149 31.9741 5.11096 29.8368C3.5069 27.6993 2.5 24.7235 2.5 21.4153C2.5 18.1071 3.5069 15.1313 5.11096 12.9938C6.7149 10.8564 8.89263 9.58105 11.2561 9.58105C13.6196 9.58105 15.7973 10.8564 17.4012 12.9938C19.0053 15.1313 20.0122 18.1071 20.0122 21.4153Z" stroke="#EA0000"/>
</g>
<path d="M7.76 25.2C6.26 25.2 5.05 25.0633 4.13 24.79C3.21 24.51 2.53667 24.12 2.11 23.62C1.69 23.1133 1.48 22.5267 1.48 21.86C1.48 21.06 1.58333 20.3567 1.79 19.75C1.99667 19.1433 2.27333 18.6367 2.62 18.23C2.96667 17.8167 3.35333 17.5067 3.78 17.3C4.20667 17.0933 4.64 16.99 5.08 16.99C5.59333 16.99 6.11 17.0433 6.63 17.15C7.15 17.2567 7.62333 17.42 8.05 17.64L7.49 19.27C7.07 18.8433 6.63 18.51 6.17 18.27C5.71667 18.0233 5.25333 17.9 4.78 17.9C4.55333 17.9 4.33667 18 4.13 18.2C3.92333 18.3933 3.74 18.65 3.58 18.97C3.42 19.2833 3.29333 19.63 3.2 20.01C3.11333 20.39 3.07 20.76 3.07 21.12C3.07 21.5867 3.13 22.01 3.25 22.39C3.37 22.7633 3.57333 23.1 3.86 23.4C4.15333 23.6933 4.55 23.95 5.05 24.17C5.55667 24.3833 6.19333 24.5633 6.96 24.71L6.74 22.06L4.63 21.56V21.44L8.31 20.54L8.06 25.2H7.76ZM9.58039 17.2H11.3304L11.2104 20.25C11.3904 20.0833 11.5971 19.93 11.8304 19.79C12.0637 19.6433 12.3071 19.5267 12.5604 19.44C12.8204 19.3467 13.0737 19.3 13.3204 19.3C13.9537 19.3 14.4237 19.4967 14.7304 19.89C15.0437 20.2767 15.2004 20.8267 15.2004 21.54C15.2004 22.3467 14.9804 23.0167 14.5404 23.55C14.1004 24.0833 13.4837 24.48 12.6904 24.74C11.9037 25 10.9804 25.13 9.92039 25.13L9.58039 17.2ZM11.0304 24.66C11.7171 24.4333 12.2537 24.1633 12.6404 23.85C13.0271 23.5367 13.3004 23.19 13.4604 22.81C13.6204 22.43 13.7004 22.0333 13.7004 21.62C13.7004 21.1667 13.6237 20.84 13.4704 20.64C13.3171 20.44 13.0937 20.34 12.8004 20.34C12.5204 20.34 12.2537 20.3633 12.0004 20.41C11.7537 20.4567 11.4837 20.54 11.1904 20.66L11.0304 24.66ZM16.2698 17.2H18.0198L17.8998 20.25C18.0798 20.0833 18.2865 19.93 18.5198 19.79C18.7532 19.6433 18.9965 19.5267 19.2498 19.44C19.5098 19.3467 19.7632 19.3 20.0098 19.3C20.6432 19.3 21.1132 19.4967 21.4198 19.89C21.7332 20.2767 21.8898 20.8267 21.8898 21.54C21.8898 22.3467 21.6698 23.0167 21.2298 23.55C20.7898 24.0833 20.1732 24.48 19.3798 24.74C18.5932 25 17.6698 25.13 16.6098 25.13L16.2698 17.2ZM17.7198 24.66C18.4065 24.4333 18.9432 24.1633 19.3298 23.85C19.7165 23.5367 19.9898 23.19 20.1498 22.81C20.3098 22.43 20.3898 22.0333 20.3898 21.62C20.3898 21.1667 20.3132 20.84 20.1598 20.64C20.0065 20.44 19.7832 20.34 19.4898 20.34C19.2098 20.34 18.9432 20.3633 18.6898 20.41C18.4432 20.4567 18.1732 20.54 17.8798 20.66L17.7198 24.66Z" fill="#3C0046"/>
<defs>
<filter id="filter0_f_105_77" x="0" y="7.08105" width="22.5122" height="28.6685" filterUnits="userSpaceOnUse" color-interpolation-filters="sRGB">
<feFlood flood-opacity="0" result="BackgroundImageFix"/>
<feBlend mode="normal" in="SourceGraphic" in2="BackgroundImageFix" result="shape"/>
<feGaussianBlur stdDeviation="1" result="effect1_foregroundBlur_105_77"/>
</filter>
</defs>
</svg>
