<svg width="59" height="46" viewBox="0 0 59 46" fill="none" xmlns="http://www.w3.org/2000/svg">
<g filter="url(#filter0_f_106_5)">
<path d="M20.5122 22.8659C20.5122 28.8669 16.3681 33.7317 11.2561 33.7317C6.1441 33.7317 2 28.8669 2 22.8659C2 16.8648 6.1441 12 11.2561 12C16.3681 12 20.5122 16.8648 20.5122 22.8659Z" fill="#7BF7E8"/>
<path d="M20.0122 22.8659C20.0122 28.6689 16.0198 33.2317 11.2561 33.2317C6.49242 33.2317 2.5 28.6689 2.5 22.8659C2.5 17.0628 6.49242 12.5 11.2561 12.5C16.0198 12.5 20.0122 17.0628 20.0122 22.8659Z" stroke="#EA0000"/>
</g>
<path d="M2.88 19.2H4.7L4.68 20.12C4.96667 19.82 5.28667 19.5933 5.64 19.44C5.99333 19.28 6.35667 19.2 6.73 19.2C7.13 19.2 7.49667 19.2933 7.83 19.48C8.17 19.66 8.46333 19.9133 8.71 20.24C8.95667 20.56 9.14667 20.93 9.28 21.35C9.41333 21.77 9.48 22.2167 9.48 22.69C9.48 23.1767 9.40667 23.6533 9.26 24.12C8.95333 25.1 8.31 25.8467 7.33 26.36C6.35 26.8733 4.99 27.13 3.25 27.13L2.88 19.2ZM4.54 26.57C5.51333 26.25 6.24667 25.8733 6.74 25.44C7.23333 25.0067 7.54 24.5867 7.66 24.18C7.76667 23.8133 7.82 23.4167 7.82 22.99C7.82 22.5433 7.76333 22.1167 7.65 21.71C7.53667 21.3033 7.37667 20.9667 7.17 20.7C6.97 20.4333 6.74 20.2833 6.48 20.25C6.34 20.23 6.20333 20.22 6.07 20.22C5.83667 20.22 5.60333 20.25 5.37 20.31C5.13667 20.3633 4.90333 20.4533 4.67 20.58L4.54 26.57ZM13.2869 27L13.8569 24.8L12.1169 25.02L11.5069 27.13H11.4069L11.6969 25.08L10.2669 25.26V23.54L11.8969 23.71L12.1669 21.77L10.7569 21.58V21.38L12.2469 21.2L12.5369 19.2H13.7969L13.2469 21.08L14.8569 20.89L15.3469 19H15.4669L15.2569 20.84L16.7169 20.67V22.39L15.1069 22.17L14.8969 24L16.8269 24.19V24.41L14.8269 24.67L14.5669 27H13.2869ZM14.5469 22.1L13.0169 21.88L12.4769 23.76L14.0769 23.92L14.5469 22.1ZM20.1912 27L20.7612 24.8L19.0212 25.02L18.4112 27.13H18.3112L18.6012 25.08L17.1712 25.26V23.54L18.8012 23.71L19.0712 21.77L17.6612 21.58V21.38L19.1512 21.2L19.4412 19.2H20.7012L20.1512 21.08L21.7612 20.89L22.2512 19H22.3712L22.1612 20.84L23.6212 20.67V22.39L22.0112 22.17L21.8012 24L23.7312 24.19V24.41L21.7312 24.67L21.4712 27H20.1912ZM21.4512 22.1L19.9212 21.88L19.3812 23.76L20.9812 23.92L21.4512 22.1Z" fill="#3C0046"/>
<defs>
<filter id="filter0_f_106_5" x="0" y="10" width="22.5122" height="25.7319" filterUnits="userSpaceOnUse" color-interpolation-filters="sRGB">
<feFlood flood-opacity="0" result="BackgroundImageFix"/>
<feBlend mode="normal" in="SourceGraphic" in2="BackgroundImageFix" result="shape"/>
<feGaussianBlur stdDeviation="1" result="effect1_foregroundBlur_106_5"/>
</filter>
</defs>
</svg>
