<svg width="23" height="26" viewBox="0 0 23 26" fill="none" xmlns="http://www.w3.org/2000/svg">
<g filter="url(#filter0_f_86_12)">
<path d="M20.5122 12.8659C20.5122 18.8669 16.3681 23.7317 11.2561 23.7317C6.1441 23.7317 2 18.8669 2 12.8659C2 6.86481 6.1441 2 11.2561 2C16.3681 2 20.5122 6.86481 20.5122 12.8659Z" fill="#7BF7E8"/>
</g>
<g filter="url(#filter1_f_86_12)">
<path fill-rule="evenodd" clip-rule="evenodd" d="M11.2561 22.7317C15.6715 22.7317 19.5122 18.471 19.5122 12.8659C19.5122 7.26072 15.6715 3 11.2561 3C6.84074 3 3 7.26072 3 12.8659C3 18.471 6.84074 22.7317 11.2561 22.7317ZM11.2561 23.7317C16.3681 23.7317 20.5122 18.8669 20.5122 12.8659C20.5122 6.86481 16.3681 2 11.2561 2C6.1441 2 2 6.86481 2 12.8659C2 18.8669 6.1441 23.7317 11.2561 23.7317Z" fill="#EA0000"/>
</g>
<path d="M10.76 17.2C9.62 17.2 8.65 17.12 7.85 16.96C7.05 16.8 6.40333 16.5733 5.91 16.28C5.41667 15.9867 5.05333 15.6367 4.82 15.23C4.59333 14.8167 4.48 14.36 4.48 13.86C4.48 13.06 4.58333 12.3567 4.79 11.75C4.99667 11.1433 5.27333 10.6367 5.62 10.23C5.96667 9.81667 6.35333 9.50667 6.78 9.3C7.20667 9.09333 7.64 8.99 8.08 8.99C8.59333 8.99 9.11 9.04333 9.63 9.15C10.15 9.25667 10.6233 9.42 11.05 9.64L10.49 11.27C9.64333 10.41 8.74 9.98 7.78 9.98C7.55333 9.98 7.34 10.0733 7.14 10.26C6.94 10.4467 6.76667 10.6967 6.62 11.01C6.47333 11.3167 6.35667 11.6567 6.27 12.03C6.19 12.3967 6.15 12.76 6.15 13.12C6.15 13.62 6.22 14.0767 6.36 14.49C6.50667 14.8967 6.75333 15.2633 7.1 15.59C7.44667 15.91 7.92 16.1933 8.52 16.44C9.12 16.68 9.87333 16.89 10.78 17.07L10.76 17.2ZM12.053 9.2H13.803L13.683 12.25C13.863 12.0833 14.0697 11.93 14.303 11.79C14.5364 11.6433 14.7797 11.5267 15.033 11.44C15.293 11.3467 15.5464 11.3 15.793 11.3C16.4264 11.3 16.8964 11.4967 17.203 11.89C17.5164 12.2767 17.673 12.8267 17.673 13.54C17.673 14.3467 17.453 15.0167 17.013 15.55C16.573 16.0833 15.9564 16.48 15.163 16.74C14.3764 17 13.453 17.13 12.393 17.13L12.053 9.2ZM13.503 16.66C14.1897 16.4333 14.7264 16.1633 15.113 15.85C15.4997 15.5367 15.773 15.19 15.933 14.81C16.093 14.43 16.173 14.0333 16.173 13.62C16.173 13.1667 16.0964 12.84 15.943 12.64C15.7897 12.44 15.5664 12.34 15.273 12.34C14.993 12.34 14.7264 12.3633 14.473 12.41C14.2264 12.4567 13.9564 12.54 13.663 12.66L13.503 16.66Z" fill="#3C0046"/>
<defs>
<filter id="filter0_f_86_12" x="0" y="0" width="22.5122" height="25.7319" filterUnits="userSpaceOnUse" color-interpolation-filters="sRGB">
<feFlood flood-opacity="0" result="BackgroundImageFix"/>
<feBlend mode="normal" in="SourceGraphic" in2="BackgroundImageFix" result="shape"/>
<feGaussianBlur stdDeviation="1" result="effect1_foregroundBlur_86_12"/>
</filter>
<filter id="filter1_f_86_12" x="0" y="0" width="22.5122" height="25.7319" filterUnits="userSpaceOnUse" color-interpolation-filters="sRGB">
<feFlood flood-opacity="0" result="BackgroundImageFix"/>
<feBlend mode="normal" in="SourceGraphic" in2="BackgroundImageFix" result="shape"/>
<feGaussianBlur stdDeviation="1" result="effect1_foregroundBlur_86_12"/>
</filter>
</defs>
</svg>
