<svg width="23" height="26" viewBox="0 0 23 26" fill="none" xmlns="http://www.w3.org/2000/svg">
<g filter="url(#filter0_f_19_1253)">
<path d="M20.5122 12.8659C20.5122 18.8669 16.3681 23.7317 11.2561 23.7317C6.1441 23.7317 2 18.8669 2 12.8659C2 6.86481 6.1441 2 11.2561 2C16.3681 2 20.5122 6.86481 20.5122 12.8659Z" fill="#7BF7E8"/>
</g>
<g filter="url(#filter1_f_19_1253)">
<path fill-rule="evenodd" clip-rule="evenodd" d="M11.2561 22.7317C15.6715 22.7317 19.5122 18.471 19.5122 12.8659C19.5122 7.26072 15.6715 3 11.2561 3C6.84074 3 3 7.26072 3 12.8659C3 18.471 6.84074 22.7317 11.2561 22.7317ZM11.2561 23.7317C16.3681 23.7317 20.5122 18.8669 20.5122 12.8659C20.5122 6.86481 16.3681 2 11.2561 2C6.1441 2 2 6.86481 2 12.8659C2 18.8669 6.1441 23.7317 11.2561 23.7317Z" fill="#EA0000"/>
</g>
<path d="M4.96802 7.41992H6.97002L6.94802 8.43192C7.26335 8.10192 7.61535 7.85259 8.00402 7.68392C8.39268 7.50792 8.79235 7.41992 9.20302 7.41992C9.64302 7.41992 10.0464 7.52259 10.413 7.72792C10.787 7.92592 11.1097 8.20459 11.381 8.56392C11.6524 8.91592 11.8614 9.32292 12.008 9.78492C12.1547 10.2469 12.228 10.7383 12.228 11.2589C12.228 11.7943 12.1474 12.3186 11.986 12.8319C11.6487 13.9099 10.941 14.7313 9.86302 15.2959C8.78502 15.8606 7.28902 16.1429 5.37502 16.1429L4.96802 7.41992ZM6.79402 15.5269C7.86468 15.1749 8.67135 14.7606 9.21402 14.2839C9.75668 13.8073 10.094 13.3453 10.226 12.8979C10.3434 12.4946 10.402 12.0583 10.402 11.5889C10.402 11.0976 10.3397 10.6283 10.215 10.1809C10.0904 9.73359 9.91435 9.36326 9.68702 9.06992C9.46702 8.77659 9.21402 8.61159 8.92802 8.57492C8.77402 8.55292 8.62368 8.54192 8.47702 8.54192C8.22035 8.54192 7.96368 8.57492 7.70702 8.64092C7.45035 8.69959 7.19368 8.79859 6.93702 8.93792L6.79402 15.5269Z" fill="#3C0046"/>
<path d="M13.5996 7.41992H15.5246L15.3926 10.7749C15.5906 10.5916 15.8179 10.4229 16.0746 10.2689C16.3312 10.1076 16.5989 9.97925 16.8776 9.88392C17.1636 9.78125 17.4422 9.72992 17.7136 9.72992C18.4102 9.72992 18.9272 9.94625 19.2646 10.3789C19.6092 10.8043 19.7816 11.4093 19.7816 12.1939C19.7816 13.0813 19.5396 13.8183 19.0556 14.4049C18.5716 14.9916 17.8932 15.4279 17.0206 15.7139C16.1552 15.9999 15.1396 16.1429 13.9736 16.1429L13.5996 7.41992ZM15.1946 15.6259C15.9499 15.3766 16.5402 15.0796 16.9656 14.7349C17.3909 14.3903 17.6916 14.0089 17.8676 13.5909C18.0436 13.1729 18.1316 12.7366 18.1316 12.2819C18.1316 11.7833 18.0472 11.4239 17.8786 11.2039C17.7099 10.9839 17.4642 10.8739 17.1416 10.8739C16.8336 10.8739 16.5402 10.8996 16.2616 10.9509C15.9902 11.0023 15.6932 11.0939 15.3706 11.2259L15.1946 15.6259Z" fill="#3C0046"/>
<defs>
<filter id="filter0_f_19_1253" x="0" y="0" width="22.5122" height="25.7319" filterUnits="userSpaceOnUse" color-interpolation-filters="sRGB">
<feFlood flood-opacity="0" result="BackgroundImageFix"/>
<feBlend mode="normal" in="SourceGraphic" in2="BackgroundImageFix" result="shape"/>
<feGaussianBlur stdDeviation="1" result="effect1_foregroundBlur_19_1253"/>
</filter>
<filter id="filter1_f_19_1253" x="0" y="0" width="22.5122" height="25.7319" filterUnits="userSpaceOnUse" color-interpolation-filters="sRGB">
<feFlood flood-opacity="0" result="BackgroundImageFix"/>
<feBlend mode="normal" in="SourceGraphic" in2="BackgroundImageFix" result="shape"/>
<feGaussianBlur stdDeviation="1" result="effect1_foregroundBlur_19_1253"/>
</filter>
</defs>
</svg>
